<svg xmlns="http://www.w3.org/2000/svg" viewBox="0 0 316.78 266.86"><defs><style>.cls-1{opacity:0.41;}.cls-2{fill:#e6f0ff;}.cls-3{fill:#d2e6ff;}.cls-4{fill:#243762;}.cls-5,.cls-9{fill:#af9cda;}.cls-6{fill:#fff;}.cls-7{fill:#ecf1f7;}.cls-11,.cls-8{fill:#c5d9ff;}.cls-9{opacity:0.33;}.cls-10{fill:#0082b7;}.cls-11{opacity:0.31;}.cls-12{fill:#f7a9b4;}.cls-13{fill:#09668f;}.cls-14{fill:#c6e8fb;}.cls-15{fill:#b6d2ff;fill-rule:evenodd;}</style></defs><title>Asset 1</title><g id="Layer_2" data-name="Layer 2"><g id="OBJECTS"><g class="cls-1"><path class="cls-2" d="M309.38,170.6A91.36,91.36,0,0,0,309,155c-2.75-24.3-15.22-47.22-33.58-63.39-6.54-5.77-14-10.94-18.25-18.56-7.18-12.82-6.64-27.56-15.54-40.23A75.39,75.39,0,0,0,205,5.18C161.33-10,81.75,8,87.26,60.59c0,.19,2.19,9.88,2.21,10.23C90.2,81.75,97.88,88.27,87,88.53c-40.31,1-75,32-82.43,71.41-4.78,25.31,3,53.07,21.56,71C39.92,244.29,58.46,251.63,77,256.68c37.21,10.12,76.37,12.24,114.73,8.37,35.92-3.62,73.8-14,97-41.58A90.74,90.74,0,0,0,309.38,170.6Z"/></g><path class="cls-3" d="M276.23,173.08a71.26,71.26,0,0,0-.33-12.22c-2.15-19-11.92-37-26.3-49.66-5.13-4.52-11-8.57-14.3-14.54-5.63-10-5.2-21.59-12.18-31.51a59,59,0,0,0-28.64-21.66c-34.23-11.86-82.15,7.45-77.83,48.69,0,.15,0,.37,0,.64a15,15,0,0,1-14.71,16c-31.58.75-58.76,25.1-64.58,55.94-3.74,19.83,2.39,41.57,16.9,55.6,10.83,10.47,25.36,16.23,39.9,20.18,29.14,7.93,59.82,9.59,89.87,6.56,28.14-2.84,57.81-10.93,76-32.57A71,71,0,0,0,276.23,173.08Z"/><circle class="cls-4" cx="295.72" cy="67.43" r="21.06" transform="translate(161.88 339.61) rotate(-76.66)"/><circle class="cls-5" cx="122.38" cy="79.38" r="52.33"/><circle class="cls-6" cx="122.38" cy="79.38" r="39.82"/><path class="cls-4" d="M132.69,87H121.86a4,4,0,0,1-4-4v-15a3.5,3.5,0,0,1,7,0V80h7.86a3.5,3.5,0,0,1,0,7Z"/><path class="cls-4" d="M41.13,97.55,97.5,153.93a28.26,28.26,0,0,0,39.94,0l6.74-6.74a6.53,6.53,0,0,0,0-9.22l-23-23a6.5,6.5,0,0,0-9.21,0l-11.5,11.5a2.31,2.31,0,0,1-3.26,0L69.3,98.57a2.26,2.26,0,0,1,0-3.21L80.64,84a6.51,6.51,0,0,0,0-9.22L57,51.18a6.52,6.52,0,0,0-9.14-.08l-6.4,6.18A28.24,28.24,0,0,0,41.13,97.55Z"/><path class="cls-7" d="M42.9,58.41,74.57,90.09,75.66,89l5-5a6.51,6.51,0,0,0,0-9.22L57,51.18a6.52,6.52,0,0,0-9.14-.08l-6.4,6.18Z"/><path class="cls-4" d="M74.57,90.8l-32-32-1.83-1.48,6.81-6.57a7,7,0,0,1,9.83.08L81,74.45a7,7,0,0,1,0,9.92ZM42.24,57.24l1,.82L74.57,89.38l5.72-5.72a6,6,0,0,0,0-8.5L56.66,51.53a6,6,0,0,0-8.43-.07Z"/><path class="cls-7" d="M107.33,121.76,139,153.44l1.08-1.09,5-5a6.53,6.53,0,0,0,0-9.22l-23.63-23.62a6.5,6.5,0,0,0-9.13-.08l-6.4,6.18Z"/><path class="cls-4" d="M139,154.15l-32-32-1.84-1.48,6.81-6.57a7.06,7.06,0,0,1,9.84.08l23.62,23.63a7,7,0,0,1,0,9.92Zm-32.34-33.56,1,.82L139,152.73l5.72-5.72a6,6,0,0,0,0-8.5L121.1,114.88a6,6,0,0,0-8.43-.07Z"/><line class="cls-7" x1="45.32" y1="54.68" x2="64.62" y2="73.98"/><line class="cls-7" x1="122.09" y1="131.45" x2="141.4" y2="150.75"/><path class="cls-4" d="M121.74,131.8a.5.5,0,0,1,0-.7.5.5,0,0,1,.71,0l19.3,19.3a.5.5,0,0,1-.35.85.51.51,0,0,1-.36-.15"/><path class="cls-4" d="M226.09,249.91,152.19,239a15.29,15.29,0,0,1-12.89-17.37L165.8,42.43a15.3,15.3,0,0,1,17.37-12.89l73.9,10.93A15.3,15.3,0,0,1,270,57.84L243.46,237A15.29,15.29,0,0,1,226.09,249.91Z"/><rect class="cls-7" x="119.41" y="91.28" width="171.05" height="92.75" transform="translate(38.77 320.25) rotate(-81.59)"/><rect class="cls-5" x="210.09" y="13.03" width="12.84" height="92.75" transform="translate(126.07 264.89) rotate(-81.59)"/><path class="cls-7" d="M190.87,238.75a6.62,6.62,0,0,1-.88-.06,6,6,0,1,1,.88.06Zm0-11a5,5,0,0,0-4.93,4.26,5,5,0,0,0,9.87,1.46,5,5,0,0,0-4.2-5.67A6.27,6.27,0,0,0,190.86,227.78Z"/><path class="cls-7" d="M204.13,44.65l-.28,0a1.93,1.93,0,0,1-1.27-.76,2,2,0,0,1-.36-1.43,1.94,1.94,0,0,1,.76-1.26A1.93,1.93,0,0,1,206,43h0A1.92,1.92,0,0,1,204.13,44.65Zm0-2.85a.91.91,0,0,0-.55.18.92.92,0,0,0-.19,1.3.93.93,0,0,0,1.29.19.88.88,0,0,0,.36-.61h0a.9.9,0,0,0-.17-.69,1,1,0,0,0-.61-.36Z"/><path class="cls-7" d="M233.93,49.06l-.28,0-23.41-3.46a2,2,0,0,1-1.27-.76,1.91,1.91,0,0,1-.35-1.43,1.87,1.87,0,0,1,.75-1.26,1.9,1.9,0,0,1,1.43-.36l23.41,3.46a1.93,1.93,0,0,1,1.62,2.18,1.91,1.91,0,0,1-.75,1.27A1.93,1.93,0,0,1,233.93,49.06Zm-23.41-6.31a.92.92,0,0,0-.91.79.88.88,0,0,0,.17.68.91.91,0,0,0,.61.37l23.4,3.46a.92.92,0,0,0,1.05-.78.92.92,0,0,0-.78-1.05l-23.4-3.46Z"/><path class="cls-8" d="M238.68,177.27l-64-9.46a1.89,1.89,0,0,0-2.16,1.61L170.05,186a1.92,1.92,0,0,0,1.61,2.17l54.72,8.09,5.63,7.77,1-6.79,2.64.39a1.91,1.91,0,0,0,2.17-1.61l2.45-16.6A1.91,1.91,0,0,0,238.68,177.27Z"/><path class="cls-8" d="M248.85,108.47l-64-9.46a1.91,1.91,0,0,0-2.17,1.6l-2.45,16.61a1.89,1.89,0,0,0,1.61,2.16l54.71,8.1,5.64,7.77,1-6.79,2.64.39a1.89,1.89,0,0,0,2.16-1.61l2.46-16.6A1.92,1.92,0,0,0,248.85,108.47Z"/><path class="cls-5" d="M167.84,129.87l64,9.46a1.92,1.92,0,0,1,1.61,2.17L231,158.1a1.89,1.89,0,0,1-2.16,1.61l-54.72-8.09-7.65,5.81,1-6.79-2.64-.39a1.91,1.91,0,0,1-1.61-2.17l2.45-16.6A1.91,1.91,0,0,1,167.84,129.87Z"/><rect class="cls-6" x="185.7" y="168.1" width="15.74" height="92.75" transform="translate(-46.92 374.59) rotate(-81.59)"/><path class="cls-8" d="M162.39,209.73a5.58,5.58,0,1,1-4.7-6.34A5.59,5.59,0,0,1,162.39,209.73Z"/><path class="cls-9" d="M230.06,224.85a4.49,4.49,0,0,1-.73-.06L169.87,216a4.91,4.91,0,0,1-3.27-2,5,5,0,0,1,4.72-7.88L230.78,215a5,5,0,0,1-.72,9.9Zm-.59-1a4,4,0,0,0,3.78-6.31,4,4,0,0,0-2.61-1.56l-59.46-8.8a4,4,0,0,0-3.78,6.31A3.93,3.93,0,0,0,170,215Z"/><path class="cls-6" d="M177.28,55.39a1.32,1.32,0,0,1-.28,0,2,2,0,0,1-.88-3.51,1.92,1.92,0,0,1,1.45-.36,2,2,0,0,1,1.65,2.22h0A2,2,0,0,1,177.28,55.39Zm0-2.91a.93.93,0,0,0-.57.19.92.92,0,0,0-.37.63,1,1,0,0,0,.17.71,1,1,0,0,0,1.72-.43h0a1,1,0,0,0-.81-1.09Z"/><path class="cls-6" d="M182.7,56.2a1.36,1.36,0,0,1-.29,0A2,2,0,1,1,183,52.3a2,2,0,0,1,1.29.77,1.93,1.93,0,0,1,.36,1.45,2,2,0,0,1-1.93,1.68Zm0-2.92a1,1,0,0,0-.94.82,1,1,0,0,0,.8,1.08,1,1,0,0,0,.72-.17,1,1,0,0,0,.37-.63h0a.9.9,0,0,0-.18-.71.93.93,0,0,0-.63-.38Z"/><path class="cls-6" d="M188,57l-.28,0a2,2,0,1,1,.28,0Zm0-2.92a1,1,0,0,0-.57.19,1,1,0,0,0-.37.63.93.93,0,0,0,.17.71,1,1,0,0,0,1.72-.43,1,1,0,0,0-.81-1.09Z"/><path class="cls-6" d="M227.29,181.1h-.08l-45.31-6.7a.5.5,0,0,1,.14-1l45.32,6.71a.5.5,0,0,1,.42.56A.5.5,0,0,1,227.29,181.1Z"/><path class="cls-6" d="M200.46,182.66h-.08L181.1,179.8a.5.5,0,0,1,.14-1l19.29,2.85a.5.5,0,0,1-.07,1Z"/><path class="cls-6" d="M194,186.87h-.07l-13.54-2a.5.5,0,1,1,.15-1l13.53,2a.5.5,0,0,1-.07,1Z"/><path class="cls-6" d="M226.49,186.5h-.08l-19.93-2.95a.5.5,0,1,1,.15-1l19.93,2.95a.5.5,0,0,1,.42.57A.49.49,0,0,1,226.49,186.5Z"/><path class="cls-6" d="M221.75,143.5h-.07l-45.32-6.7a.51.51,0,0,1-.42-.57.49.49,0,0,1,.57-.42l45.32,6.7a.5.5,0,0,1-.08,1Z"/><path class="cls-6" d="M194.93,145.05h-.08l-19.28-2.86a.5.5,0,0,1-.43-.56.51.51,0,0,1,.57-.43L195,144.06a.5.5,0,0,1,.42.56A.5.5,0,0,1,194.93,145.05Z"/><path class="cls-6" d="M215,153.19h-.08l-39.11-6.07a.5.5,0,1,1,.15-1L215,152.19a.51.51,0,0,1,.42.57A.5.5,0,0,1,215,153.19Z"/><path class="cls-6" d="M221,148.9h-.07L201,146a.5.5,0,0,1,.14-1L221,147.91a.5.5,0,0,1,.42.57A.51.51,0,0,1,221,148.9Z"/><path class="cls-5" d="M176.06,67.45l64,9.46a1.92,1.92,0,0,1,1.61,2.17l-2.46,16.6a1.89,1.89,0,0,1-2.16,1.61L182.33,89.2,174.68,95l1-6.79-2.64-.39a1.91,1.91,0,0,1-1.61-2.17l2.45-16.6A1.91,1.91,0,0,1,176.06,67.45Z"/><path class="cls-6" d="M230,81.08h-.07l-45.32-6.7a.51.51,0,0,1-.42-.57.5.5,0,0,1,.57-.42L230,80.08a.5.5,0,0,1-.07,1Z"/><path class="cls-6" d="M203.14,82.63h-.07l-19.29-2.86a.5.5,0,0,1-.42-.56.51.51,0,0,1,.57-.43l19.29,2.86a.5.5,0,0,1,.42.57A.51.51,0,0,1,203.14,82.63Z"/><path class="cls-6" d="M223.18,90.77h-.07L184,84.69a.5.5,0,1,1,.15-1l39.11,6.06a.51.51,0,0,1,.42.57A.51.51,0,0,1,223.18,90.77Z"/><path class="cls-6" d="M229.17,86.48h-.07l-19.93-3a.5.5,0,1,1,.14-1l19.93,2.95a.5.5,0,0,1,.43.56A.51.51,0,0,1,229.17,86.48Z"/><path class="cls-6" d="M237.5,112.93h-.07l-45.32-6.7a.51.51,0,0,1-.42-.57.5.5,0,0,1,.57-.42l45.31,6.7a.5.5,0,0,1-.07,1Z"/><path class="cls-6" d="M210.67,114.49h-.07l-19.29-2.86a.5.5,0,0,1-.42-.57.51.51,0,0,1,.57-.42l19.29,2.86a.5.5,0,0,1,.42.56A.51.51,0,0,1,210.67,114.49Z"/><path class="cls-6" d="M204.18,118.7h-.08l-13.53-2a.5.5,0,0,1-.43-.57.51.51,0,0,1,.57-.42l13.54,2a.5.5,0,0,1,.42.56A.5.5,0,0,1,204.18,118.7Z"/><path class="cls-6" d="M236.7,118.34h-.07l-19.93-2.94a.51.51,0,0,1-.43-.57.51.51,0,0,1,.57-.42l19.93,2.95a.5.5,0,0,1,.43.56A.51.51,0,0,1,236.7,118.34Z"/><path class="cls-8" d="M145.36,234.54,42.7,246.11a3.59,3.59,0,0,1-4-3.17l-7.41-65.76a.19.19,0,0,1,.17-.21l109.39-12.33a.19.19,0,0,1,.21.17l7.42,65.79A3.56,3.56,0,0,1,145.36,234.54Z"/><path class="cls-4" d="M42.3,246.63A4.11,4.11,0,0,1,38.23,243l-7.4-65.77a.69.69,0,0,1,.6-.76l109.4-12.32a.68.68,0,0,1,.76.6L149,230.54a4.07,4.07,0,0,1-3.58,4.5L42.76,246.61Zm-10.45-69.2,7.38,65.46a3.08,3.08,0,0,0,3.42,2.72L145.3,234.05l.06.49-.06-.49a3.07,3.07,0,0,0,2.71-3.4l-7.38-65.48Z"/><path class="cls-10" d="M140.55,234.54,47.72,246.11c-2,.22,28.77-39.2,28.55-41.18L31.32,177.18a.19.19,0,0,1,.17-.21l109.39-12.33a.19.19,0,0,1,.21.17l-37.42,37C103.89,203.81,142.51,234.32,140.55,234.54Z"/><path class="cls-5" d="M31.49,177l45.24-44.74a8.21,8.21,0,0,1,10.11-1.15l53.77,33.39a.11.11,0,0,1-.05.21L31.3,177"/><path class="cls-4" d="M31.36,177.49l-.09-.74-.13-.14.11-.1v0h0l45.12-44.62a8.69,8.69,0,0,1,10.72-1.22l53.77,33.4a.62.62,0,0,1,.28.65.63.63,0,0,1-.53.48Zm51.15-47.15a7.73,7.73,0,0,0-5.43,2.24L32.87,176.31l106.53-12L86.57,131.5A7.68,7.68,0,0,0,82.51,130.34Z"/><path class="cls-10" d="M31.49,177l45.24-44.74a8.21,8.21,0,0,1,10.11-1.15l53.77,33.39a.11.11,0,0,1-.05.21L31.3,177"/><path class="cls-5" d="M81.73,198l-34,47.31,92.83-10.46L96.87,196.33A10.27,10.27,0,0,0,81.73,198Z"/><path class="cls-4" d="M46.66,246l34.66-48.23.41.29-.41-.29A10.77,10.77,0,0,1,97.2,196l44.52,39.31Zm43.41-51.72a9.74,9.74,0,0,0-7.93,4.07l-33.35,46.4,90.58-10.21L96.54,196.71A9.81,9.81,0,0,0,90.07,194.26Z"/><path class="cls-6" d="M37,144.56l71.5-8.06c4.69-.53,8.86,2.34,9.32,6.41l4.59,40.79L102.54,202l-26.27,3-26-16.23-4.45-39.51Z"/><path class="cls-4" d="M76.15,205.45,49.84,189l-4.45-39.49-6.8-5.63L108.46,136a9.72,9.72,0,0,1,6.58,1.57,7.43,7.43,0,0,1,3.29,5.29l4.62,41-20.19,18.55Zm-25.37-17,25.6,16,25.94-2.92,19.58-18L117.33,143a6.38,6.38,0,0,0-2.86-4.57,8.63,8.63,0,0,0-5.9-1.4l-69.88,7.87,7.64,4Z"/><path class="cls-8" d="M81.73,198l-34,47.31,92.83-10.46L96.87,196.33A10.27,10.27,0,0,0,81.73,198Z"/><path class="cls-4" d="M46.66,246l34.66-48.23.41.29-.41-.29A10.77,10.77,0,0,1,97.2,196l44.52,39.31Zm43.41-51.72a9.74,9.74,0,0,0-7.93,4.07l-33.35,46.4,90.58-10.21L96.54,196.71A9.81,9.81,0,0,0,90.07,194.26Z"/><path class="cls-11" d="M85,208.51l-25,34.75,68.17-7.68L96.14,207.26A7.53,7.53,0,0,0,85,208.51Z"/><line class="cls-12" x1="31.53" y1="177.06" x2="76.27" y2="204.93"/><polyline class="cls-4" points="76.53 204.51 76 205.36 31.27 177.48 31.8 176.63"/><line class="cls-12" x1="141.08" y1="164.71" x2="103.67" y2="201.85"/><rect class="cls-4" x="96.02" y="182.78" width="52.71" height="1" transform="translate(-93.61 139.47) rotate(-44.8)"/><path class="cls-7" d="M47.84,167.4l-12.48,1.4-2-17.8a6,6,0,0,1,5.28-6.63l.57-.06a6,6,0,0,1,6.63,5.28Z"/><path class="cls-4" d="M34.92,169.36l-2.06-18.3a6.49,6.49,0,0,1,1.38-4.78,6.4,6.4,0,0,1,4.35-2.4l.56-.07a6.49,6.49,0,0,1,7.18,5.73l2.06,18.3Zm5-24.59a4.3,4.3,0,0,0-.62,0l-.57.06a5.48,5.48,0,0,0-4.84,6.07l1.94,17.31L47.29,167l-1.95-17.31a5.49,5.49,0,0,0-5.45-4.88Z"/><path class="cls-4" d="M56.31,158.13a.5.5,0,0,1-.05-1l51.8-5.84a.5.5,0,0,1,.12,1l-51.81,5.84Z"/><path class="cls-4" d="M58.3,175.74a.5.5,0,0,1-.06-1l51.81-5.83a.49.49,0,0,1,.55.44.5.5,0,0,1-.44.55l-51.8,5.84Z"/><path class="cls-4" d="M57.3,166.83a.5.5,0,0,1-.5-.44.49.49,0,0,1,.44-.55l22.39-2.53a.5.5,0,0,1,.11,1l-22.39,2.52Z"/><path class="cls-4" d="M85.54,163.65a.5.5,0,0,1-.05-1L109,160a.5.5,0,1,1,.12,1L85.6,163.65Z"/><path class="cls-4" d="M59.42,185.73a.5.5,0,0,1-.05-1l22.38-2.52a.5.5,0,1,1,.12,1l-22.39,2.52Z"/><path class="cls-10" d="M291.66,73.8a1.48,1.48,0,0,0,1.45,1.5h8.36a1,1,0,0,1,.72.31l2.74,3a1,1,0,0,0,1.69-.72l-.15-2.6h1.82a1.47,1.47,0,0,0,1.44-1.5V62.89a1.48,1.48,0,0,0-1.44-1.51H293.11a1.48,1.48,0,0,0-1.45,1.51Z"/><path class="cls-13" d="M291.66,64v9a1,1,0,0,0,1,1H303a2.57,2.57,0,0,0,2.57-2.57v-9l-1-1H294.23A2.57,2.57,0,0,0,291.66,64Z"/><path class="cls-14" d="M303.4,70a2.57,2.57,0,0,1-2.56,2.57h-9.16a1,1,0,0,0-.7.3l-3.26,3.44A1,1,0,0,1,286,75.6l.12-2a1,1,0,0,0-1-1h0A2.57,2.57,0,0,1,282.62,70V60.39a2.56,2.56,0,0,1,2.56-2.56h15.66a2.56,2.56,0,0,1,2.56,2.56Z"/><path class="cls-10" d="M290.3,65.2A1.23,1.23,0,1,1,289.07,64,1.23,1.23,0,0,1,290.3,65.2Z"/><path class="cls-10" d="M294.24,65.2A1.23,1.23,0,1,1,293,64,1.23,1.23,0,0,1,294.24,65.2Z"/><path class="cls-10" d="M298.17,65.2A1.23,1.23,0,1,1,297,64,1.22,1.22,0,0,1,298.17,65.2Z"/><path class="cls-10" d="M10.38,109.08a15.76,15.76,0,0,0,7.48,30.43l-4.07-11.15-2.45.89L10,125.7l2.45-.9L12,123.58a8.55,8.55,0,0,1-.68-3.29,3.72,3.72,0,0,1,1-2.29,6.47,6.47,0,0,1,2.83-1.77,11.68,11.68,0,0,1,3.86-.81l.55,3.32a8.46,8.46,0,0,0-2.12.46,1.86,1.86,0,0,0-1.17,1,2.57,2.57,0,0,0,.21,1.87l.42,1.15L20.2,122l1.3,3.56-3.25,1.18,4.17,11.43a15.75,15.75,0,0,0-12-29.07Z"/><circle class="cls-6" cx="295.22" cy="186.5" r="14.2" transform="translate(45.63 430.72) rotate(-76.66)"/><path class="cls-15" d="M295.73,171.1a15.41,15.41,0,1,0,15.39,15.41A15.4,15.4,0,0,0,295.73,171.1Zm10.2,9.55a8.25,8.25,0,0,1-1.68,1.71.36.36,0,0,0-.15.33,11.77,11.77,0,0,1-2.8,7.91,10.93,10.93,0,0,1-6.76,3.79,11.49,11.49,0,0,1-8.05-1.57.18.18,0,0,0-.09,0,8.82,8.82,0,0,0,4.22-.73,7.45,7.45,0,0,0,1.7-1,4.07,4.07,0,0,1-1.75-.43,3.94,3.94,0,0,1-1.93-2.16c-.09-.21-.09-.21.15-.2a3.34,3.34,0,0,0,1.48-.1,4.17,4.17,0,0,1-3.14-3.82c0-.18,0-.2.2-.12a4,4,0,0,0,1.59.44c-.26-.24-.49-.42-.69-.63a4.13,4.13,0,0,1-.63-4.58c.1-.2.13-.2.27-.05a11.45,11.45,0,0,0,7.06,4c.29,0,.6.06.9.11s.22-.06.19-.22a4,4,0,0,1,6.78-3.63.43.43,0,0,0,.44.1,7.43,7.43,0,0,0,2.14-.83c.06,0,.1-.05.17-.11a4,4,0,0,1-1.7,2.23,8,8,0,0,0,2.18-.57C306,180.51,306,180.57,305.93,180.65Z"/></g></g></svg>