<svg xmlns="http://www.w3.org/2000/svg" viewBox="0 0 393.2 345.1"><defs><style>.cls-1{isolation:isolate;}.cls-2{fill:#0082aa;}.cls-3{fill:#eef8fe;}.cls-4{fill:#cf6c30;}.cls-5{fill:#e57636;}.cls-16,.cls-6{fill:#fff;}.cls-7{fill:#c4e7fb;}.cls-8{fill:#002e50;}.cls-9{fill:#eda53b;}.cls-10{fill:#ea9639;}.cls-11{fill:#b8c5cc;}.cls-12{fill:#d7e6ee;}.cls-13{fill:#74abdd;}.cls-14{fill:#196770;}.cls-15{fill:#e3aa89;}.cls-16,.cls-19{stroke:#dadada;stroke-linecap:round;stroke-linejoin:round;stroke-width:1.28px;}.cls-17{fill:#b2b2b2;}.cls-18{fill:#454f56;}.cls-19{fill:#efeeee;}.cls-20{fill:none;stroke:#454f56;stroke-miterlimit:10;stroke-width:0.42px;}.cls-21{fill:#f8b894;}.cls-22{fill:#0472a4;}.cls-23{fill:#cad4d9;mix-blend-mode:multiply;}.cls-24{fill:#a8a8a7;}.cls-25{fill:#c6c6c6;}.cls-26{fill:#e30613;}.cls-27{fill:#424f7d;}.cls-28{fill:#ededed;}</style></defs><title>Asset 1</title><g class="cls-1"><g id="Layer_2" data-name="Layer 2"><g id="Capa_1" data-name="Capa 1"><path class="cls-2" d="M9.22,332.28c0,7.08,84.54,12.82,188.84,12.82s188.83-5.74,188.83-12.82-84.54-12.81-188.83-12.81S9.22,325.21,9.22,332.28Z"/><path class="cls-3" d="M344.22,326.44a195.86,195.86,0,0,0,49-129.84C393.2,88,305.18,0,196.6,0S0,88,0,196.6A195.81,195.81,0,0,0,49,326.44Z"/><rect class="cls-4" x="189.23" y="84.15" width="106.32" height="189.91" transform="translate(-26.37 315.48) rotate(-63.37)"/><polygon class="cls-5" points="351.1 174.15 181.34 89.02 297.35 69.5 351.1 174.15"/><rect class="cls-6" x="179.5" y="90.54" width="154.69" height="115.52" transform="translate(9.14 311.41) rotate(-63.37)"/><polygon class="cls-7" points="273.8 243.33 170.54 191.54 239.88 53.27 177.07 188.88 273.8 243.33"/><rect class="cls-8" x="253.62" y="65.1" width="45.17" height="93.61" transform="translate(52.36 308.64) rotate(-63.37)"/><rect class="cls-8" x="260.16" y="90.56" width="6.55" height="93.61" transform="translate(22.55 311.27) rotate(-63.37)"/><rect class="cls-8" x="255.47" y="99.91" width="6.55" height="93.61" transform="translate(11.61 312.24) rotate(-63.37)"/><rect class="cls-8" x="250.79" y="109.26" width="6.55" height="93.61" transform="translate(0.67 313.21) rotate(-63.37)"/><rect class="cls-8" x="246.1" y="118.6" width="6.55" height="93.61" transform="translate(-10.27 314.17) rotate(-63.37)"/><rect class="cls-8" x="218.42" y="142.14" width="6.55" height="42.15" transform="translate(-23.59 288.22) rotate(-63.37)"/><rect class="cls-8" x="257.33" y="170.21" width="6.55" height="47.8" transform="translate(-29.74 340.05) rotate(-63.37)"/><rect class="cls-8" x="252.81" y="179.21" width="6.55" height="47.8" transform="translate(-40.27 340.98) rotate(-63.37)"/><rect class="cls-8" x="240.21" y="193.2" width="6.55" height="29.71" transform="translate(-51.64 332.44) rotate(-63.37)"/><rect class="cls-8" x="194.53" y="163.16" width="33.23" height="42.16" transform="translate(-48.19 290.4) rotate(-63.37)"/><path class="cls-6" d="M268.64,115.14l-5,9.93a3.06,3.06,0,0,1-1.92,1.6,3.13,3.13,0,0,1-2.48-.15l-5.4-2.71a.71.71,0,0,1-.36-1.08l7.19-14.34a.71.71,0,0,1,1.08-.36l5.4,2.71a3.4,3.4,0,0,1,1.47,4.4Zm-7.9,8.48,5-10-3.23-1.62-5,10Z"/><path class="cls-6" d="M270.7,131.53l.89-3.22-3-1.53-2.05,2.64a.74.74,0,0,1-1,.22l-1.5-.75a.8.8,0,0,1-.43-.54.77.77,0,0,1,.15-.68l10.07-12.89a.71.71,0,0,1,1-.23l2.91,1.46a.74.74,0,0,1,.43.94l-4.33,15.77a.79.79,0,0,1-.45.52.76.76,0,0,1-.69,0l-1.5-.76A.72.72,0,0,1,270.7,131.53Zm1.77-6.43,1.43-5.19-3.32,4.24Z"/><path class="cls-6" d="M281,130.15l-2.55,5.09a.72.72,0,0,1-1.09.36l-1.5-.75a.72.72,0,0,1-.36-1.09l2.56-5.11,1.34-10.57a.77.77,0,0,1,.42-.62.83.83,0,0,1,.75,0l1.46.73a.74.74,0,0,1,.44.84l-.88,6.29,4.49-4.48a.72.72,0,0,1,.93-.15l1.55.78a.76.76,0,0,1,.43.6.77.77,0,0,1-.24.7Z"/><path class="cls-6" d="M276.22,93.55l-2.3-1.15-6.45,12.86a.75.75,0,0,1-1.15.38l-1.56-.78a.76.76,0,0,1-.38-1.15l6.45-12.86-2.3-1.15a.76.76,0,0,1-.39-1.14l.79-1.56a.75.75,0,0,1,1.15-.38l7.68,3.85a.76.76,0,0,1,.39,1.15l-.79,1.56A.74.74,0,0,1,276.22,93.55Z"/><path class="cls-6" d="M276.66,110.05l.94-3.41L274.37,105l-2.18,2.79a.77.77,0,0,1-1.06.24l-1.58-.79a.84.84,0,0,1-.46-.58.8.8,0,0,1,.16-.72L279.9,92.31a.76.76,0,0,1,1.05-.24L284,93.62a.77.77,0,0,1,.44,1l-4.58,16.7a.82.82,0,0,1-.47.55.85.85,0,0,1-.73,0l-1.59-.8A.78.78,0,0,1,276.66,110.05Zm1.87-6.81L280,97.75l-3.51,4.49Z"/><path class="cls-6" d="M290.25,117.64l-1.7-.85a.79.79,0,0,1-.47-.82l.31-5.08-3.88,3.28a.79.79,0,0,1-.94.12l-1.7-.85a.86.86,0,0,1-.17-1.42l7-5.92.52-8.56a.84.84,0,0,1,1.23-.71l1.7.85a.81.81,0,0,1,.47.82l-.27,4.52,3.46-2.92a.77.77,0,0,1,.93-.12l1.71.86a.81.81,0,0,1,.46.66.86.86,0,0,1-.3.75l-6.55,5.54-.57,9.14a.88.88,0,0,1-.42.69A.83.83,0,0,1,290.25,117.64Z"/><polygon class="cls-9" points="133.68 184.06 181.34 89.02 240.74 178.28 133.68 184.06"/><polygon class="cls-9" points="303.43 269.19 351.1 174.15 244.03 179.93 303.43 269.19"/><polygon class="cls-10" points="303.43 269.19 133.68 184.06 249.69 164.55 303.43 269.19"/><rect class="cls-11" x="81.66" y="190.98" width="206.87" height="127.42" rx="5.24"/><path class="cls-11" d="M68.56,318.17v6.35c0,2.53,6.84,9.18,9.45,9.18H293c2.61,0,9.45-6.65,9.45-9.18v-6.35Z"/><path class="cls-12" d="M74.82,318.17v5.46c0,2.17,6.47,7.88,8.94,7.88h203.5c2.47,0,8.94-5.71,8.94-7.88v-5.46Z"/><path class="cls-12" d="M286.16,312a5.08,5.08,0,0,1-5.11,5.06H89.14A5.09,5.09,0,0,1,84,312V199.1A5.09,5.09,0,0,1,89.14,194H281.05a5.09,5.09,0,0,1,5.11,5.06Z"/><path class="cls-11" d="M187.55,200.64a2.46,2.46,0,1,1-2.46-2.46A2.46,2.46,0,0,1,187.55,200.64Z"/><rect class="cls-13" x="90.55" y="205.06" width="189.08" height="108.28"/><polygon class="cls-14" points="279.63 313.34 90.55 313.34 90.55 205.06 96.41 311.4 279.63 313.34"/><path class="cls-15" d="M130.05,182.92c-9.15,6.59-40,29-40,29l-8.35-12.88s34.89-20.19,41-23.55C129,172,138.14,177.1,130.05,182.92Z"/><path class="cls-15" d="M142.8,189.82C133.43,196.25,98.93,221,98.93,221L91.37,210.8s39.28-25,44.82-29.23C143.3,176.2,150,184.9,142.8,189.82Z"/><path class="cls-15" d="M146.79,203.66c-8.27,6.45-40.72,27.66-40.72,27.66l-6.23-9.6s35-23.56,40.19-27.33C146.87,189.42,155.5,196.86,146.79,203.66Z"/><path class="cls-15" d="M148.38,215.92c-6.8,7.72-35.32,25.44-35.32,25.44l-6.64-8.88s32.27-20.85,37.69-24.27S153.53,210.07,148.38,215.92Z"/><path class="cls-15" d="M112.94,241.35s-21.48,18.93-29.89,23.37c-7.91,4.2-13.77,1.62-13.77,1.62L50.4,282.69,42.5,270l23.68-19.17,26.22-42Z"/><polygon class="cls-16" points="189.5 286.17 71.44 286.17 84.26 250.87 202.31 250.87 189.5 286.17"/><polygon class="cls-16" points="202.31 174.39 84.26 174.39 115.24 128.08 233.3 128.08 202.31 174.39"/><polygon class="cls-17" points="191.42 261.96 85.47 261.96 87.17 256.86 193.42 256.86 191.42 261.96"/><polygon class="cls-17" points="188.43 270.1 82.79 270.1 84.82 265 190.46 265 188.43 270.1"/><polygon class="cls-17" points="139.48 278.24 81.19 278.24 82.79 273.14 139.48 273.14 139.48 278.24"/><polygon class="cls-17" points="203.17 146.34 138.27 146.34 141.48 140.44 210.39 140.44 203.17 146.34"/><polygon class="cls-17" points="196.39 155.75 133.96 155.75 137.11 149.86 201.27 149.86 196.39 155.75"/><polygon class="cls-17" points="164.83 165.16 130.58 165.16 133.42 159.27 167.74 159.27 164.83 165.16"/><path class="cls-18" d="M116.79,155l-2.68,6.57a3,3,0,0,1-1.23,1.36,3.37,3.37,0,0,1-1.78.58H107q-.54,0-.33-.48l4.18-9.45a.74.74,0,0,1,.73-.48l3.88,0a1.4,1.4,0,0,1,1.24.58A1.33,1.33,0,0,1,116.79,155Zm-4.87,6.58,2.76-6.58h-2.35l-2.83,6.57Z"/><path class="cls-18" d="M119.69,163.11l.3-1.94H117.7l-1.2,1.94a.76.76,0,0,1-.69.39h-1.14a.36.36,0,0,1-.35-.18.37.37,0,0,1,0-.4l5.91-9.48a.71.71,0,0,1,.65-.39H123c.29,0,.41.13.37.38l-1.42,9.5a.62.62,0,0,1-.26.4.8.8,0,0,1-.48.18h-1.15Q119.63,163.5,119.69,163.11Zm.6-3.87.5-3.13-1.9,3.13Z"/><path class="cls-18" d="M126.7,159.63,125.52,163a.67.67,0,0,1-.71.48h-1.14c-.37,0-.49-.16-.38-.48l1.22-3.4-.14-6a.58.58,0,0,1,.23-.44.8.8,0,0,1,.5-.2h1.06c.24,0,.37.1.37.32l0,3.57,2.56-3.58a.69.69,0,0,1,.6-.33h1.12a.34.34,0,0,1,.35.21.42.42,0,0,1-.08.43Z"/><path class="cls-18" d="M120.51,141.6l-1.56,0-3.62,8.49a.78.78,0,0,1-.76.5h-1.11c-.37,0-.47-.17-.32-.5l3.71-8.48H115.3c-.35,0-.45-.16-.3-.49l.47-1a.76.76,0,0,1,.74-.51l5.15-.06c.34,0,.44.17.3.5l-.43,1A.74.74,0,0,1,120.51,141.6Z"/><path class="cls-18" d="M121.85,150.17l.37-2.06-2.26,0-1.27,2.06a.84.84,0,0,1-.71.41h-1.12a.35.35,0,0,1-.35-.18.4.4,0,0,1,.07-.42L122.83,140a.74.74,0,0,1,.66-.41l2.07,0c.28,0,.4.13.35.4l-1.79,10a.7.7,0,0,1-.27.42.82.82,0,0,1-.49.19h-1.13C121.93,150.57,121.8,150.44,121.85,150.17Zm.75-4.09.63-3.31-2,3.32Z"/><path class="cls-18" d="M131.56,150.52h-1.2c-.24,0-.37-.1-.39-.31l-.29-2.77-2.25,2.79a.77.77,0,0,1-.61.31h-1.21a.31.31,0,0,1-.36-.22.45.45,0,0,1,.13-.48l4.08-5-.34-4.65a.6.6,0,0,1,.22-.48.67.67,0,0,1,.51-.23l1.14,0a.31.31,0,0,1,.36.31l.19,2.46,2-2.48a.69.69,0,0,1,.58-.32h1.14a.33.33,0,0,1,.35.22.55.55,0,0,1-.12.48l-3.67,4.7.53,5a.62.62,0,0,1-.21.48A.73.73,0,0,1,131.56,150.52Z"/><polygon class="cls-19" points="216.65 250.87 101.12 250.87 84.26 174.39 202.31 174.39 216.65 250.87"/><polygon class="cls-17" points="194.19 185.18 98.81 185.18 97.71 180.08 193.22 180.08 194.19 185.18"/><polygon class="cls-17" points="195.74 193.32 100.58 193.32 99.47 188.22 194.77 188.22 195.74 193.32"/><polygon class="cls-17" points="152.93 201.46 102.34 201.46 101.24 196.36 151.9 196.36 152.93 201.46"/><polygon class="cls-18" points="200.26 217.06 105.73 217.06 103.21 205.45 198.05 205.45 200.26 217.06"/><path class="cls-18" d="M197.71,205.87l8,42.06H112.85l-9.13-42.06h94m.34-.42H103.21l9.32,42.91h93.68l-8.16-42.91Z"/><line class="cls-20" x1="106.82" y1="222.07" x2="201.21" y2="222.07"/><line class="cls-20" x1="107.94" y1="227.25" x2="202.2" y2="227.25"/><line class="cls-20" x1="109.07" y1="232.43" x2="203.18" y2="232.43"/><line class="cls-20" x1="110.19" y1="237.61" x2="204.17" y2="237.61"/><line class="cls-20" x1="111.32" y1="242.79" x2="205.15" y2="242.79"/><line class="cls-20" x1="121.72" y1="248.36" x2="112.52" y2="205.45"/><line class="cls-20" x1="177.42" y1="248.36" x2="168.9" y2="205.45"/><line class="cls-20" x1="192.12" y1="248.36" x2="183.79" y2="205.45"/><path class="cls-21" d="M35.17,256.47S45,252,47,247.45s1.69-25.09,5.36-29.6S79.72,197,84.79,197.55s32.81,8.32,40.6,10.43-1.13,12-11.64,13.67C103.55,223.3,91,217.56,91,217.56s2.54,23.69-16.91,36.65L42.5,270Z"/><polygon class="cls-22" points="59.29 279.54 31.52 303.03 20.73 283.87 13.07 266.6 38.78 252.36 59.29 279.54"/><path class="cls-23" d="M49.53,267c1.43,9.08-3.35,7.67-13,12.54-10.95,5.54-9.59,1.15-20-4.94L31.5,302.81l27.79-23.27Z"/><path class="cls-23" d="M54.75,274.26c-.89,5.75-5.47,7.3-9.91,10.05-7.78,4.82-3.06,2.7-11.54,6.37-3.75,1.62-6.3-1.47-9.63-1.9l7.48,13.6,27.59-22.84Z"/><path class="cls-24" d="M373.46,321.15c0,4-2.92,7.32-6.53,7.32h-59c-3.61,0-6.54-3.28-6.54-7.32V217.73c0-4,2.93-7.33,6.54-7.33h59c3.61,0,6.53,3.28,6.53,7.33Z"/><path class="cls-25" d="M370.29,315.53c0,3.84-2.67,7-6,7H310.5c-3.29,0-6-3.11-6-7V217.36c0-3.84,2.67-7,6-7h53.83c3.29,0,6,3.12,6,7Z"/><path class="cls-18" d="M355.84,226.77a1.12,1.12,0,0,1-1,1.17H320a1.11,1.11,0,0,1-1-1.17h0a1.1,1.1,0,0,1,1-1.16H354.8a1.11,1.11,0,0,1,1,1.16Z"/><polygon class="cls-6" points="350.97 195.53 348.71 191.99 346.44 195.53 344.19 191.99 341.93 195.53 339.67 191.99 337.41 195.53 335.15 191.99 332.89 195.53 330.63 191.99 328.38 195.53 326.12 191.99 323.86 195.53 321.6 191.99 321.6 199.14 321.6 200.22 321.6 226.77 353.23 226.77 353.23 200.22 353.23 199.14 353.23 191.99 350.97 195.53"/><path class="cls-18" d="M365.93,254.64a2,2,0,0,1-2,2h-53a2,2,0,0,1-2-2V237.17a2,2,0,0,1,2-2h53a2,2,0,0,1,2,2Z"/><path class="cls-13" d="M362.53,253.59a1.78,1.78,0,0,1-1.79,1.76H314.1a1.78,1.78,0,0,1-1.8-1.76V241.7a1.78,1.78,0,0,1,1.8-1.76h46.64a1.77,1.77,0,0,1,1.79,1.76Z"/><rect class="cls-26" x="308.9" y="261.91" width="10.5" height="4.56" rx="1.28"/><rect class="cls-27" x="320.53" y="261.91" width="10.5" height="4.56" rx="1.28"/><rect class="cls-27" x="332.17" y="261.91" width="10.5" height="4.56" rx="1.28"/><rect class="cls-27" x="343.8" y="261.91" width="10.5" height="4.56" rx="1.28"/><rect class="cls-27" x="355.44" y="261.91" width="10.5" height="4.56" rx="1.28"/><rect class="cls-27" x="308.9" y="268.13" width="10.5" height="8.56" rx="1.28"/><rect class="cls-27" x="320.53" y="268.13" width="10.5" height="8.56" rx="1.28"/><rect class="cls-27" x="332.17" y="268.13" width="10.5" height="8.56" rx="1.28"/><rect class="cls-28" x="343.8" y="268.13" width="10.5" height="8.56" rx="1.28"/><rect class="cls-28" x="355.44" y="268.13" width="10.5" height="8.56" rx="1.28"/><rect class="cls-27" x="308.9" y="278.82" width="10.5" height="8.55" rx="1.28"/><rect class="cls-27" x="320.53" y="278.82" width="10.5" height="8.55" rx="1.28"/><rect class="cls-27" x="332.17" y="278.82" width="10.5" height="8.55" rx="1.28"/><rect class="cls-28" x="343.8" y="278.82" width="10.5" height="8.55" rx="1.28"/><rect class="cls-28" x="355.44" y="278.82" width="10.5" height="8.55" rx="1.28"/><rect class="cls-27" x="308.9" y="289.52" width="10.5" height="8.56" rx="1.28"/><rect class="cls-27" x="320.53" y="289.52" width="10.5" height="8.56" rx="1.28"/><rect class="cls-27" x="332.17" y="289.52" width="10.5" height="8.56" rx="1.28"/><rect class="cls-28" x="343.8" y="289.52" width="10.5" height="8.56" rx="1.28"/><rect class="cls-28" x="355.44" y="289.52" width="10.5" height="8.56" rx="1.28"/><rect class="cls-27" x="308.9" y="300.22" width="10.5" height="8.56" rx="1.28"/><rect class="cls-27" x="320.53" y="300.22" width="10.5" height="8.56" rx="1.28"/><rect class="cls-27" x="332.17" y="300.22" width="10.5" height="8.56" rx="1.28"/><rect class="cls-28" x="355.44" y="300.22" width="10.5" height="8.56" rx="1.28"/><rect class="cls-27" x="308.9" y="310.91" width="10.5" height="8.55" rx="1.28"/><rect class="cls-27" x="320.53" y="310.91" width="10.5" height="8.55" rx="1.28"/><rect class="cls-27" x="332.17" y="310.91" width="10.5" height="8.55" rx="1.28"/><path class="cls-28" d="M353,300.22h-7.94a1.28,1.28,0,0,0-1.28,1.28v16.69a1.29,1.29,0,0,0,1.28,1.28H353a1.28,1.28,0,0,0,1.28-1.28V301.5A1.28,1.28,0,0,0,353,300.22Z"/><rect class="cls-28" x="355.44" y="310.91" width="10.5" height="8.55" rx="1.28"/></g></g></g></svg>