<svg xmlns="http://www.w3.org/2000/svg" viewBox="0 0 374 382.05"><defs><style>.cls-1{isolation:isolate;}.cls-2{fill:#c6e8fb;}.cls-3,.cls-4{fill:#007ca5;}.cls-4{opacity:0.2;mix-blend-mode:multiply;}.cls-5{fill:#313965;}.cls-6{fill:#fff;}.cls-7{fill:#f5b800;}.cls-8{fill:#ef9a00;}.cls-9{fill:#d9d1c2;}.cls-10{fill:#00aeea;}.cls-11{fill:#0082b7;}.cls-12{fill:#065475;}.cls-13{opacity:0.49;}.cls-14{fill:#09668f;}</style></defs><title>Asset 2</title><g class="cls-1"><g id="Layer_2" data-name="Layer 2"><g id="OBJECTS"><path class="cls-2" d="M172.7,209.63c3-2.26,12.93-6.22,13.08-17-.15-10.8-10.13-14.76-13.08-17s-13.08-6.7-25.63-23S140.59,106,140.59,106H241.54s6.07,30.38-6.48,46.64-22.67,20.68-25.63,23-12.93,6.22-13.09,17c.16,10.79,10,14.87,13.09,17,5.59,3.94,13.86,8.5,25.63,23,13,15.93,6.48,46.63,6.48,46.63H140.59s-6.07-30.38,6.48-46.63S169.73,211.91,172.7,209.63Z"/><path class="cls-3" d="M196.64,239.21a6.3,6.3,0,0,1-4.44-5.7c-.77-13.46-.57-44.19,4.92-51.15a29.63,29.63,0,0,1,6.5-5.59c16.69-11.44,29.19-21.39,33-34.5H144.83c2.7,11.12,18.19,26.33,33.68,34.5a53.41,53.41,0,0,1,6.2,3.48c6.29,4.43,6.56,38.6,5.87,53a6.3,6.3,0,0,1-4.63,5.8c-19.53,5.27-34.31,38.73-34.31,38.73h78.85S215.94,244.89,196.64,239.21Z"/><path class="cls-4" d="M172.7,209.63c3-2.26,12.93-6.22,13.08-17-.15-10.8-10.13-14.76-13.08-17s-13.08-6.7-25.63-23S140.59,106,140.59,106h8.58c-1.12,10.57-4.83,30.91,4.85,43.46,13.55,17.55,24.47,22.33,27.68,24.79s10.83,6.71,11,18.37c-.17,11.65-7.82,15.92-11,18.37s-14.13,7.23-27.68,24.79c-9.68,12.54-6,32.88-4.85,43.45h-8.58s-6.07-30.38,6.48-46.63S169.73,211.91,172.7,209.63Z"/><path class="cls-5" d="M249.35,286.07a3.24,3.24,0,0,1-3.24,3.24H136a3.24,3.24,0,0,1-3.24-3.24v-5A3.24,3.24,0,0,1,136,277.8H246.11a3.24,3.24,0,0,1,3.24,3.24Z"/><path class="cls-4" d="M242.75,115.83H139.38a88.27,88.27,0,0,1,1.21-9.83H241.54A88.27,88.27,0,0,1,242.75,115.83Z"/><path class="cls-4" d="M139.38,269.4H242.75a88.27,88.27,0,0,1-1.21,9.83H140.59A88.27,88.27,0,0,1,139.38,269.4Z"/><rect class="cls-5" x="132.78" y="96.68" width="116.57" height="11.51" rx="3.24"/><path class="cls-6" d="M239.54,119.79c-.63,14.17-2.09,34.8-34.18,54.39C215.57,164.17,230.16,153.34,239.54,119.79Z"/><path class="cls-6" d="M206.92,211.21C221.6,220.66,238.64,235,239,252c.17,6.75-6.58,5.4-6.58-.84S227.84,225.89,206.92,211.21Z"/><polygon class="cls-5" points="115.41 328.49 90.27 300.02 53.45 309.35 42.54 344.67 104.5 363.81 115.41 328.49"/><polygon class="cls-7" points="53.45 309.35 42.54 344.67 104.5 363.81 53.45 309.35"/><polygon class="cls-7" points="115.41 328.49 42.54 344.67 104.5 363.81 115.41 328.49"/><polygon class="cls-8" points="78.97 336.58 42.54 344.67 104.5 363.81 78.97 336.58"/><rect class="cls-9" x="77.15" y="293.78" width="1.51" height="14.91" transform="translate(-232.91 286.76) rotate(-72.83)"/><rect class="cls-9" x="86.85" y="289.01" width="1.51" height="37.23" transform="translate(-232.18 300.54) rotate(-72.83)"/><rect class="cls-9" x="85.89" y="292.11" width="1.51" height="37.23" transform="translate(-235.81 301.8) rotate(-72.83)"/><rect class="cls-9" x="84.94" y="295.21" width="1.51" height="37.23" transform="translate(-239.45 303.07) rotate(-72.83)"/><rect class="cls-9" x="83.98" y="298.31" width="1.51" height="37.23" transform="translate(-243.08 304.34) rotate(-72.83)"/><rect class="cls-9" x="83.02" y="301.41" width="1.51" height="37.23" transform="translate(-246.71 305.61) rotate(-72.83)"/><rect class="cls-9" x="82.06" y="304.5" width="1.51" height="37.23" transform="translate(-250.35 306.88) rotate(-72.83)"/><path class="cls-2" d="M101.3,346.7,54.83,332.34,66.24,295.4a3.48,3.48,0,0,1,4.36-2.3l39.81,12.3a3.48,3.48,0,0,1,2.3,4.35Z"/><polygon class="cls-10" points="53.45 309.35 42.54 344.67 104.5 363.81 53.45 309.35"/><polygon class="cls-10" points="115.41 328.49 42.54 344.67 104.5 363.81 115.41 328.49"/><polygon class="cls-11" points="78.97 336.58 42.54 344.67 104.5 363.81 78.97 336.58"/><rect class="cls-5" x="77.15" y="293.78" width="1.51" height="14.91" transform="translate(-232.91 286.76) rotate(-72.83)"/><rect class="cls-5" x="86.85" y="289.01" width="1.51" height="37.23" transform="translate(-232.18 300.54) rotate(-72.83)"/><rect class="cls-5" x="85.89" y="292.11" width="1.51" height="37.23" transform="translate(-235.81 301.8) rotate(-72.83)"/><rect class="cls-5" x="84.94" y="295.21" width="1.51" height="37.23" transform="translate(-239.45 303.07) rotate(-72.83)"/><rect class="cls-5" x="83.98" y="298.31" width="1.51" height="37.23" transform="translate(-243.08 304.34) rotate(-72.83)"/><rect class="cls-5" x="83.02" y="301.41" width="1.51" height="37.23" transform="translate(-246.71 305.61) rotate(-72.83)"/><rect class="cls-5" x="82.06" y="304.5" width="1.51" height="37.23" transform="translate(-250.35 306.88) rotate(-72.83)"/><rect class="cls-12" x="314.42" y="124.15" width="52" height="60.72" rx="4.78" transform="translate(64.93 -98.21) rotate(18.12)"/><path class="cls-6" d="M346.84,183.44l-28.69-9.39c-2.43-.8-3.88-3.09-3.22-5.11l13.46-41.13c.65-2,3.18-3,5.61-2.21L362.69,135c2.43.79,3.88,3.09,3.22,5.1l-13.45,41.13C351.8,183.24,349.27,184.23,346.84,183.44Z"/><rect class="cls-11" x="341.08" y="127.33" width="14.92" height="4.77" rx="1.51" transform="translate(57.63 -101.97) rotate(18.12)"/><rect class="cls-10" x="334.41" y="139.04" width="20.85" height="3.94" rx="1.78" transform="translate(60.47 -99.68) rotate(18.01)"/><rect class="cls-10" x="332.29" y="145.57" width="20.85" height="3.94" rx="1.78" transform="matrix(0.95, 0.31, -0.31, 0.95, 62.39, -98.71)"/><rect class="cls-10" x="330.16" y="152.1" width="20.85" height="3.94" rx="1.78" transform="translate(64.3 -97.73) rotate(18.01)"/><rect class="cls-10" x="328.04" y="158.63" width="20.85" height="3.94" rx="1.78" transform="translate(66.22 -96.76) rotate(18.01)"/><rect class="cls-10" x="325.81" y="165.5" width="20.85" height="3.94" rx="1.78" transform="translate(68.23 -95.73) rotate(18.01)"/><path class="cls-10" d="M362.16,234.79l-5.86,33.64a5.28,5.28,0,0,1-6.25,4.05l-38.24-6.66a5.27,5.27,0,0,1-4.51-5.92l5.86-33.64a5.26,5.26,0,0,1,6.24-4l38.25,6.66A5.27,5.27,0,0,1,362.16,234.79Z"/><path class="cls-11" d="M362.4,233.42l-2.09,12-49-8.53,2.08-12c.35-2,3-3.2,6-2.68l38.25,6.66C360.62,229.39,362.74,231.43,362.4,233.42Z"/><rect class="cls-6" x="314.62" y="244.68" width="5.28" height="3.88" rx="0.58" transform="translate(47.02 -50.78) rotate(9.88)"/><rect class="cls-6" x="321.55" y="245.88" width="5.28" height="3.88" rx="0.58" transform="translate(47.32 -51.94) rotate(9.88)"/><rect class="cls-6" x="328.49" y="247.09" width="5.28" height="3.88" rx="0.58" transform="translate(47.64 -53.12) rotate(9.88)"/><rect class="cls-6" x="335.42" y="248.3" width="5.28" height="3.88" rx="0.58" transform="translate(47.96 -54.3) rotate(9.88)"/><rect class="cls-6" x="342.1" y="249.46" width="5.28" height="3.88" rx="0.58" transform="translate(48.25 -55.43) rotate(9.88)"/><rect class="cls-6" x="348.77" y="250.62" width="5.28" height="3.88" rx="0.58" transform="translate(48.55 -56.55) rotate(9.88)"/><rect class="cls-6" x="313.53" y="250.95" width="5.28" height="3.88" rx="0.58" transform="translate(48.08 -50.49) rotate(9.88)"/><rect class="cls-6" x="320.46" y="252.16" width="5.28" height="3.88" rx="0.58" transform="matrix(0.99, 0.17, -0.17, 0.99, 48.39, -51.67)"/><rect class="cls-6" x="327.39" y="253.37" width="5.28" height="3.88" rx="0.58" transform="translate(48.71 -52.85) rotate(9.88)"/><rect class="cls-6" x="334.33" y="254.58" width="5.28" height="3.88" rx="0.58" transform="matrix(0.99, 0.17, -0.17, 0.99, 49, -54)"/><rect class="cls-6" x="341.01" y="255.74" width="5.28" height="3.88" rx="0.58" transform="translate(49.29 -55.13) rotate(9.88)"/><rect class="cls-6" x="347.68" y="256.9" width="5.28" height="3.88" rx="0.58" transform="translate(49.61 -56.27) rotate(9.88)"/><rect class="cls-6" x="312.43" y="257.23" width="5.28" height="3.88" rx="0.58" transform="translate(49.14 -50.22) rotate(9.88)"/><rect class="cls-6" x="319.37" y="258.44" width="5.28" height="3.88" rx="0.58" transform="translate(49.44 -51.38) rotate(9.88)"/><rect class="cls-6" x="326.3" y="259.65" width="5.28" height="3.88" rx="0.58" transform="translate(49.76 -52.56) rotate(9.88)"/><rect class="cls-6" x="333.23" y="260.85" width="5.28" height="3.88" rx="0.58" transform="translate(50.07 -53.73) rotate(9.88)"/><rect class="cls-6" x="339.91" y="262.02" width="5.28" height="3.88" rx="0.58" transform="matrix(0.99, 0.17, -0.17, 0.99, 50.37, -54.87)"/><rect class="cls-6" x="346.59" y="263.18" width="5.28" height="3.88" rx="0.58" transform="translate(50.66 -55.98) rotate(9.88)"/><path class="cls-5" d="M321.11,230.58h0a2.7,2.7,0,0,1-2.18-3.1l1.31-7.49a2.68,2.68,0,0,1,3.09-2.18h0a2.69,2.69,0,0,1,2.18,3.09l-1.31,7.5A2.68,2.68,0,0,1,321.11,230.58Z"/><path class="cls-5" d="M337.16,233.37h0a2.68,2.68,0,0,1-2.18-3.09l1.31-7.5a2.67,2.67,0,0,1,3.09-2.17h0a2.68,2.68,0,0,1,2.18,3.09l-1.31,7.5A2.67,2.67,0,0,1,337.16,233.37Z"/><path class="cls-5" d="M353.21,236.17h0a2.68,2.68,0,0,1-2.17-3.1l1.3-7.49a2.69,2.69,0,0,1,3.09-2.18h0a2.69,2.69,0,0,1,2.18,3.09L356.3,234A2.68,2.68,0,0,1,353.21,236.17Z"/><rect class="cls-10" x="75.99" y="49.14" width="5.65" height="27.37" transform="translate(-20.22 44.1) rotate(-27.86)"/><rect class="cls-12" x="75.57" y="49.24" width="5.65" height="25.6" transform="translate(-19.9 43.82) rotate(-27.85)"/><rect class="cls-10" x="84.85" y="55.15" width="5.65" height="17.34" transform="translate(-19.66 48.36) rotate(-27.86)"/><rect class="cls-10" x="85.65" y="28.65" width="5.65" height="41.8" transform="translate(-12.9 47.08) rotate(-27.85)"/><rect class="cls-10" x="94.32" y="33.88" width="5.65" height="32.6" transform="translate(-12.19 51.2) rotate(-27.86)"/><rect class="cls-10" x="104.6" y="45.58" width="5.65" height="16.52" transform="translate(-12.71 56.43) rotate(-27.86)"/><rect class="cls-10" x="106.87" y="25.04" width="5.65" height="34.67" transform="translate(-7.09 56.17) rotate(-27.86)"/><rect class="cls-10" x="110.95" y="11.72" width="5.65" height="45.15" transform="translate(-2.84 57.13) rotate(-27.86)"/><rect class="cls-12" x="81.91" y="55.44" width="5.65" height="5.65" transform="translate(-17.4 46.34) rotate(-27.85)"/><rect class="cls-12" x="76.64" y="30.89" width="5.65" height="3.22" transform="translate(-5.98 40.89) rotate(-27.86)"/><rect class="cls-12" x="89.18" y="35.15" width="5.65" height="10.59" transform="translate(-8.24 47.67) rotate(-27.85)"/><rect class="cls-12" x="101.13" y="39.25" width="5.65" height="16.08" transform="translate(-10.05 54.05) rotate(-27.86)"/><rect class="cls-12" x="100.65" y="26.58" width="5.65" height="8.04" transform="translate(-2.31 51.89) rotate(-27.86)"/><rect class="cls-12" x="109.73" y="12.02" width="5.65" height="39.93" transform="translate(-1.9 56.29) rotate(-27.85)"/><path class="cls-2" d="M55.27,100.81A20.59,20.59,0,1,0,38,131c.77,3,8.86,9.1,13.55,6.6s3.39-13.58,2-14.87A20.58,20.58,0,0,0,55.27,100.81Z"/><path class="cls-11" d="M38.94,132.79l4.11,7.72h0c1.57,2.66,6.15,3,10.36.8s6.46-6.25,5.13-9h0l-4.11-7.72Z"/><rect class="cls-6" x="39.26" y="130.61" width="17.58" height="1.17" transform="translate(-55.96 37.91) rotate(-28)"/><g class="cls-13"><path class="cls-6" d="M24.93,104.1a4.51,4.51,0,0,1-.34,8.72,3.62,3.62,0,0,1-2.16-.09,4.51,4.51,0,0,1,.34-8.71A3.7,3.7,0,0,1,24.93,104.1Z"/></g><path class="cls-11" d="M71.64,205.52l-20.4,13.81L29.52,187.24l20.41-13.81a1.84,1.84,0,0,1,2.85,1.25L55.58,193l16,9.41A1.84,1.84,0,0,1,71.64,205.52Z"/><polygon class="cls-12" points="52.16 209.94 47.19 213.3 51.25 219.3 52.16 209.94"/><path class="cls-10" d="M52.15,210,28.92,225.69,7.41,193.92l21.72-14.7a1.84,1.84,0,0,1,2.55.5Z"/><path class="cls-12" d="M48.09,259.69h0a3.47,3.47,0,0,1-4.82-.93L.6,195.69a3.47,3.47,0,0,1,.93-4.82h0a3.48,3.48,0,0,1,4.82.93L49,254.87A3.47,3.47,0,0,1,48.09,259.69Z"/><path class="cls-10" d="M294.14,56.77,291,56.42a17.81,17.81,0,0,0-1-4l2.59-1.86a.6.6,0,0,0,.17-.78l-1.68-3a.61.61,0,0,0-.76-.26l-2.92,1.25a18.85,18.85,0,0,0-2.48-2.65l1.42-2.83a.61.61,0,0,0-.21-.77l-2.89-1.87a.61.61,0,0,0-.79.13l-2,2.44a18,18,0,0,0-5.07-1.49L275,37.6a.6.6,0,0,0-.59-.53h-3.44a.6.6,0,0,0-.59.53L270,40.74a18.06,18.06,0,0,0-4.1,1.08l-1.84-2.56a.61.61,0,0,0-.78-.17l-3,1.7a.61.61,0,0,0-.25.76l1.25,2.9A18.38,18.38,0,0,0,258.67,47l-2.85-1.41a.61.61,0,0,0-.77.21l-1.85,2.9a.59.59,0,0,0,.13.78l2.48,2a18.56,18.56,0,0,0-1.44,5l-3.18.35a.6.6,0,0,0-.54.59V60.8a.6.6,0,0,0,.54.59l3.2.35a18.37,18.37,0,0,0,1.05,4l-2.63,1.88a.6.6,0,0,0-.17.78l1.68,3a.6.6,0,0,0,.76.26l3-1.28a18.34,18.34,0,0,0,2.46,2.6l-1.46,2.91a.59.59,0,0,0,.21.77l2.88,1.87a.6.6,0,0,0,.79-.13L265,75.84a18.23,18.23,0,0,0,5,1.46l.36,3.26a.6.6,0,0,0,.59.53h3.44a.6.6,0,0,0,.59-.53l.36-3.26a17.92,17.92,0,0,0,4-1l1.92,2.65a.6.6,0,0,0,.78.17l3-1.7a.6.6,0,0,0,.26-.76l-1.3-3a18.41,18.41,0,0,0,2.61-2.46l2.91,1.45a.6.6,0,0,0,.77-.21l1.85-2.89a.6.6,0,0,0-.13-.79l-2.51-2a18.75,18.75,0,0,0,1.46-4.95l3.2-.35a.6.6,0,0,0,.53-.59V57.36A.6.6,0,0,0,294.14,56.77ZM272.66,69.92A10.84,10.84,0,1,1,283.5,59.08,10.84,10.84,0,0,1,272.66,69.92Z"/><path class="cls-11" d="M328.27,51.67l-2.42-.26a14,14,0,0,0-.78-3L327,47a.46.46,0,0,0,.14-.59l-1.28-2.27a.46.46,0,0,0-.58-.19l-2.21.94a14.38,14.38,0,0,0-1.89-2l1.08-2.15a.46.46,0,0,0-.16-.58l-2.19-1.42a.46.46,0,0,0-.6.1l-1.51,1.86A13.53,13.53,0,0,0,314,39.51l-.26-2.38a.45.45,0,0,0-.45-.4h-2.61a.45.45,0,0,0-.45.4L310,39.51a13.57,13.57,0,0,0-3.11.82l-1.4-1.94a.45.45,0,0,0-.59-.13l-2.26,1.29a.45.45,0,0,0-.2.57l1,2.21a14.3,14.3,0,0,0-2,1.9l-2.16-1.07a.45.45,0,0,0-.58.16l-1.41,2.2a.45.45,0,0,0,.1.59l1.88,1.52a13.72,13.72,0,0,0-1.09,3.78l-2.42.26a.45.45,0,0,0-.4.45v2.61a.45.45,0,0,0,.4.45l2.43.27a13.36,13.36,0,0,0,.8,3l-2,1.43a.46.46,0,0,0-.13.59l1.28,2.27a.45.45,0,0,0,.57.2l2.27-1a13.94,13.94,0,0,0,1.87,2l-1.11,2.21a.46.46,0,0,0,.16.59L304,68.16a.46.46,0,0,0,.6-.1l1.56-1.92A13.75,13.75,0,0,0,310,67.25l.27,2.47a.45.45,0,0,0,.45.4h2.61a.45.45,0,0,0,.45-.4l.27-2.47a13.56,13.56,0,0,0,3.05-.8l1.45,2a.45.45,0,0,0,.59.13l2.26-1.29a.44.44,0,0,0,.19-.57l-1-2.27a14,14,0,0,0,2-1.87l2.21,1.1a.45.45,0,0,0,.58-.16l1.41-2.19a.46.46,0,0,0-.1-.6l-1.91-1.54a13.55,13.55,0,0,0,1.11-3.75l2.43-.27a.45.45,0,0,0,.4-.45V52.12A.45.45,0,0,0,328.27,51.67Zm-14.9,9.87a8.23,8.23,0,1,1,6.71-6.72A8.25,8.25,0,0,1,313.37,61.54Z"/><path class="cls-12" d="M314.61,81.16l-1.78-.2a10.38,10.38,0,0,0-.58-2.24l1.45-1a.34.34,0,0,0,.1-.44l-.94-1.67a.34.34,0,0,0-.43-.15l-1.63.7a11,11,0,0,0-1.4-1.49l.8-1.58a.36.36,0,0,0-.12-.44l-1.62-1a.34.34,0,0,0-.44.07L306.91,73a10.47,10.47,0,0,0-2.84-.84l-.2-1.75a.33.33,0,0,0-.33-.3h-1.92a.34.34,0,0,0-.34.3l-.19,1.75a10.39,10.39,0,0,0-2.3.61l-1-1.43a.34.34,0,0,0-.44-.1l-1.67,1a.34.34,0,0,0-.14.43l.7,1.62a10.38,10.38,0,0,0-1.48,1.41l-1.59-.79a.33.33,0,0,0-.43.12l-1,1.62a.34.34,0,0,0,.07.44l1.39,1.12a10.07,10.07,0,0,0-.8,2.79l-1.79.2a.33.33,0,0,0-.3.33v1.93a.33.33,0,0,0,.3.33l1.8.19a10.15,10.15,0,0,0,.58,2.23l-1.47,1.06a.32.32,0,0,0-.09.43l.94,1.68a.34.34,0,0,0,.42.15l1.68-.72a10,10,0,0,0,1.38,1.46L295,91.86a.32.32,0,0,0,.12.43l1.61,1a.34.34,0,0,0,.44-.07l1.16-1.42a10.1,10.1,0,0,0,2.79.82l.2,1.82a.34.34,0,0,0,.34.3h1.92a.33.33,0,0,0,.33-.3l.2-1.82a10.93,10.93,0,0,0,2.25-.59l1.08,1.48a.33.33,0,0,0,.43.1l1.68-1a.33.33,0,0,0,.14-.42l-.73-1.68a10.53,10.53,0,0,0,1.46-1.37L312,90a.35.35,0,0,0,.43-.12l1-1.62a.33.33,0,0,0-.07-.45L312,86.72a10,10,0,0,0,.82-2.78l1.79-.19a.33.33,0,0,0,.3-.33V81.49A.33.33,0,0,0,314.61,81.16Zm-12,7.37a6.08,6.08,0,1,1,6.07-6.08A6.08,6.08,0,0,1,302.58,88.53Z"/><path class="cls-10" d="M191.55,28.68,180.35,8.83a22.8,22.8,0,1,0,33,26.7Z"/><path class="cls-11" d="M191.74,2.15a22.7,22.7,0,0,0-11.2,2.94l11.2,19.85.1,0,9.55-20.69A22.73,22.73,0,0,0,191.74,2.15Z"/><path class="cls-12" d="M217.9,26.81A22.78,22.78,0,0,0,204.75,6.16l-9.54,20.68,21.64,6.82A22.46,22.46,0,0,0,217.9,26.81Z"/><path class="cls-11" d="M180.53,366.87a3.26,3.26,0,0,0,3.19,3.32h19.49L214,382.05l-.7-11.86h4a3.26,3.26,0,0,0,3.2-3.32V342.69a3.26,3.26,0,0,0-3.2-3.33H183.72a3.26,3.26,0,0,0-3.19,3.33Z"/><path class="cls-14" d="M180.53,342.89v24.34h27.33a3.48,3.48,0,0,0,3.52-3.48V339.41a.43.43,0,0,0,0-.05H184.05A3.53,3.53,0,0,0,180.53,342.89Z"/><path class="cls-2" d="M206.54,360.67A3.53,3.53,0,0,1,203,364.2H179.64l-11.95,12.58.77-12.58H164a3.53,3.53,0,0,1-3.53-3.53V335a3.53,3.53,0,0,1,3.53-3.52h39a3.53,3.53,0,0,1,3.53,3.52Z"/><path class="cls-11" d="M177.5,347.82a2.72,2.72,0,1,1-2.72-2.72A2.72,2.72,0,0,1,177.5,347.82Z"/><path class="cls-11" d="M186.23,347.82a2.72,2.72,0,1,1-2.72-2.72A2.72,2.72,0,0,1,186.23,347.82Z"/><path class="cls-11" d="M195,347.82a2.72,2.72,0,1,1-2.72-2.72A2.72,2.72,0,0,1,195,347.82Z"/><path class="cls-10" d="M287.79,360.75a25.28,25.28,0,1,1,25.27-25.28A25.31,25.31,0,0,1,287.79,360.75Zm0-45.88a20.61,20.61,0,1,0,20.6,20.6A20.63,20.63,0,0,0,287.79,314.87Z"/><path class="cls-10" d="M287.79,360.75a25.28,25.28,0,1,1,25.27-25.28A25.31,25.31,0,0,1,287.79,360.75Zm0-45.06a19.78,19.78,0,1,0,19.78,19.78A19.8,19.8,0,0,0,287.79,315.69Z"/><path class="cls-10" d="M287.79,352.25a16.78,16.78,0,1,1,16.78-16.78A16.79,16.79,0,0,1,287.79,352.25Zm0-31.22a14.45,14.45,0,1,0,14.44,14.44A14.45,14.45,0,0,0,287.79,321Z"/><path class="cls-10" d="M287.79,345.65A10.18,10.18,0,1,1,298,335.47,10.2,10.2,0,0,1,287.79,345.65Zm0-18a7.84,7.84,0,1,0,7.84,7.84A7.85,7.85,0,0,0,287.79,327.63Z"/><path class="cls-10" d="M287.79,338.6a3.13,3.13,0,1,1,3.13-3.13A3.13,3.13,0,0,1,287.79,338.6Z"/><path class="cls-11" d="M305.83,312.66l-18.58,22.16a.77.77,0,0,0,.1,1.09l19.49-23.39A.76.76,0,0,0,305.83,312.66Z"/><path class="cls-5" d="M306.84,312.52l-19.49,23.39a.77.77,0,0,0,1.09-.09L307,313.66a.78.78,0,0,0-.1-1.1Z"/><polygon class="cls-11" points="304.49 314.3 299.47 320.26 298.46 313.38 303.48 307.42 304.49 314.3"/><polygon class="cls-5" points="305.78 315.13 300.77 321.1 307.73 320.92 312.73 314.95 305.78 315.13"/><path class="cls-10" d="M229.2,54.39a1.57,1.57,0,1,1-1.56-1.56A1.56,1.56,0,0,1,229.2,54.39Z"/><path class="cls-10" d="M260.9,15.65a.78.78,0,1,1-.78-.78A.78.78,0,0,1,260.9,15.65Z"/><path class="cls-10" d="M131.76,1.17A1.17,1.17,0,1,1,130.59,0,1.17,1.17,0,0,1,131.76,1.17Z"/><path class="cls-10" d="M76.59,95.09A1.57,1.57,0,1,1,75,93.53,1.57,1.57,0,0,1,76.59,95.09Z"/><path class="cls-10" d="M90.67,232.06a2,2,0,1,1-2-2A1.95,1.95,0,0,1,90.67,232.06Z"/><circle class="cls-10" cx="12.41" cy="145.97" r="1.57"/><circle class="cls-10" cx="138.03" cy="336.15" r="1.96"/><path class="cls-10" d="M19.45,306.41a2.35,2.35,0,1,1-2.35-2.35A2.35,2.35,0,0,1,19.45,306.41Z"/><path class="cls-10" d="M314.12,287.63a2.35,2.35,0,1,1-2.35-2.35A2.35,2.35,0,0,1,314.12,287.63Z"/><circle class="cls-10" cx="232.34" cy="378.81" r="1.57"/><path class="cls-10" d="M374,204.66a1.57,1.57,0,1,1-1.57-1.56A1.57,1.57,0,0,1,374,204.66Z"/><path class="cls-10" d="M350.12,91.57a2,2,0,1,1-1.95-2A2,2,0,0,1,350.12,91.57Z"/><path class="cls-10" d="M149.3,36.77h-1.86V34.91a.94.94,0,0,0-1.87,0v1.86h-1.86a.93.93,0,0,0,0,1.86h1.86V40.5a.94.94,0,0,0,1.87,0V38.63h1.86a.93.93,0,1,0,0-1.86Z"/><path class="cls-10" d="M243.38,4.55h-1.87V2.69a.93.93,0,1,0-1.86,0V4.55h-1.86a.93.93,0,0,0,0,1.86h1.86V8.28a.93.93,0,1,0,1.86,0V6.41h1.87a.93.93,0,1,0,0-1.86Z"/><path class="cls-10" d="M302.89,118.89H301V117a.94.94,0,1,0-1.87,0v1.86H297.3a.93.93,0,1,0,0,1.86h1.86v1.87a.94.94,0,0,0,1.87,0v-1.87h1.86a.93.93,0,1,0,0-1.86Z"/><path class="cls-10" d="M312.59,199.82h-1.86V198a.93.93,0,1,0-1.86,0v1.86H307a.94.94,0,0,0,0,1.87h1.87v1.86a.93.93,0,1,0,1.86,0v-1.86h1.86a.94.94,0,0,0,0-1.87Z"/><path class="cls-10" d="M342.35,301.23h-1.86v-1.87a.94.94,0,0,0-1.87,0v1.87h-1.86a.93.93,0,1,0,0,1.86h1.86V305a.94.94,0,0,0,1.87,0v-1.86h1.86a.93.93,0,1,0,0-1.86Z"/><path class="cls-10" d="M247.26,358.88H245.4V357a.94.94,0,0,0-1.87,0v1.87h-1.86a.93.93,0,1,0,0,1.86h1.86v1.86a.94.94,0,0,0,1.87,0v-1.86h1.86a.93.93,0,1,0,0-1.86Z"/><path class="cls-10" d="M130.82,375H129v-1.86a.93.93,0,0,0-1.86,0V375h-1.87a.93.93,0,0,0,0,1.86h1.87v1.87a.93.93,0,0,0,1.86,0v-1.87h1.86a.93.93,0,1,0,0-1.86Z"/><path class="cls-10" d="M11.08,265.65H9.21v-1.86a.93.93,0,0,0-1.86,0v1.86H5.49a.93.93,0,1,0,0,1.86H7.35v1.87a.93.93,0,0,0,1.86,0v-1.87h1.87a.93.93,0,0,0,0-1.86Z"/><path class="cls-10" d="M71.88,155.84H70V154a.93.93,0,0,0-1.86,0v1.87H66.29a.93.93,0,0,0,0,1.86h1.87v1.86a.93.93,0,1,0,1.86,0V157.7h1.86a.93.93,0,1,0,0-1.86Z"/><path class="cls-10" d="M49.24,59.38H47.38V57.51a.94.94,0,0,0-1.87,0v1.87H43.65a.93.93,0,0,0,0,1.86h1.86V63.1a.94.94,0,0,0,1.87,0V61.24h1.86a.93.93,0,0,0,0-1.86Z"/></g></g></g></svg>