<svg xmlns="http://www.w3.org/2000/svg" viewBox="0 0 362.51 270.58"><defs><style>.cls-1{fill:#eef7ff;}.cls-2{fill:#222023;}.cls-3{fill:#a59aa5;}.cls-4{fill:#c2b8c2;}.cls-5{fill:#dbd5db;}.cls-6{fill:#8dc9ff;}.cls-7{fill:#6cb0f7;}.cls-10,.cls-11,.cls-27,.cls-28,.cls-37,.cls-8,.cls-9{fill:none;}.cls-10,.cls-8,.cls-9{stroke:#fff;}.cls-11,.cls-27,.cls-28,.cls-37,.cls-8{stroke-miterlimit:10;}.cls-8{stroke-width:2.21px;}.cls-10,.cls-9{stroke-linecap:round;stroke-linejoin:round;}.cls-9{stroke-width:13.14px;}.cls-10{stroke-width:9.03px;}.cls-11{stroke:#222021;stroke-width:0.99px;}.cls-12{fill:#fff;}.cls-13{fill:#00b25c;}.cls-14{fill:#fba09f;}.cls-15{fill:#fafafa;}.cls-16{fill:#21529f;}.cls-17{fill:#e0895a;}.cls-18{fill:#00387c;}.cls-19{fill:#002951;}.cls-20{fill:#08994d;}.cls-21{fill:#045127;}.cls-22{fill:#3489ce;}.cls-23{fill:#201c30;}.cls-24{fill:#cc6e44;}.cls-25{fill:#fdbc9b;}.cls-26{fill:#ffac9d;}.cls-27{stroke:#ed8e8e;}.cls-27,.cls-37{stroke-width:0.75px;}.cls-28{stroke:#efa987;stroke-width:0.48px;}.cls-29{fill:#090b0c;}.cls-30{fill:#3d5057;}.cls-31{fill:#efa987;}.cls-32{fill:#171e21;}.cls-33{fill:#e49d7d;}.cls-34{fill:#e9b022;}.cls-35{fill:#f7c12e;}.cls-36{fill:#fac030;}.cls-37{stroke:#eaae28;}</style></defs><title>Asset 1</title><g id="Layer_2" data-name="Layer 2"><g id="OBJECTS"><path class="cls-1" d="M329.44,142.22A142.22,142.22,0,1,0,98.1,253.05H276.33A141.94,141.94,0,0,0,329.44,142.22Z"/><path class="cls-2" d="M167.18,226.41h33.89a0,0,0,0,1,0,0v11.92a14.31,14.31,0,0,1-14.31,14.31h-5.27a14.31,14.31,0,0,1-14.31-14.31V226.41A0,0,0,0,1,167.18,226.41Z"/><path class="cls-3" d="M157.25,189.58h54a0,0,0,0,1,0,0v39.18a10.77,10.77,0,0,1-10.77,10.77H168a10.77,10.77,0,0,1-10.77-10.77V189.58A0,0,0,0,1,157.25,189.58Z"/><path class="cls-4" d="M211.46,212.63H156.7a6.52,6.52,0,0,1-6.51-6.51h0a6.51,6.51,0,0,1,6.51-6.51h54.76a6.5,6.5,0,0,1,6.51,6.51h0A6.51,6.51,0,0,1,211.46,212.63Z"/><path class="cls-5" d="M178.65,212.63H167.18a6.51,6.51,0,0,1-6.51-6.51h0a6.5,6.5,0,0,1,6.51-6.51h11.47a6.51,6.51,0,0,1,6.51,6.51h0A6.52,6.52,0,0,1,178.65,212.63Z"/><path class="cls-4" d="M211.46,232.36H156.7a6.51,6.51,0,0,1-6.51-6.51h0a6.52,6.52,0,0,1,6.51-6.51h54.76a6.51,6.51,0,0,1,6.51,6.51h0A6.5,6.5,0,0,1,211.46,232.36Z"/><path class="cls-5" d="M173.24,232.36h-.66a6.51,6.51,0,0,1-6.51-6.51h0a6.52,6.52,0,0,1,6.51-6.51h.66a6.51,6.51,0,0,1,6.51,6.51h0A6.5,6.5,0,0,1,173.24,232.36Z"/><path class="cls-6" d="M261.15,100.06c0-39.23-34.4-71-76.85-71s-76.85,31.8-76.85,71c0,23.51,12.36,44.34,31.4,57.27h0s8.93,4.91,9.92,18.22v9.56c0,4.48,3.93,8.12,8.79,8.12h53.61c4.86,0,8.79-3.64,8.79-8.12v-9.65c1-13.25,9.75-18.08,9.75-18.08h0C248.77,144.45,261.15,123.59,261.15,100.06Z"/><circle class="cls-7" cx="185.19" cy="106.73" r="55.52" transform="translate(41.44 264.92) rotate(-77.7)"/><path class="cls-8" d="M176.2,193.23V113.15a10.73,10.73,0,0,0-10.73-10.73h0a10.73,10.73,0,0,0-10.73,10.73v6a10.73,10.73,0,0,0,10.73,10.73l18.52,0"/><path class="cls-8" d="M192,193.23V113.15a10.72,10.72,0,0,1,10.72-10.73h0a10.72,10.72,0,0,1,10.73,10.73v6a10.72,10.72,0,0,1-10.73,10.73l-19.94,0"/><path class="cls-9" d="M138.5,66.42A60.47,60.47,0,0,1,157,51.22"/><path class="cls-10" d="M126.24,116.77A60.41,60.41,0,0,1,125,104.43"/><path class="cls-10" d="M245.39,104.43a60.2,60.2,0,0,1-2.22,16.28"/><line class="cls-11" y1="252.65" x2="362.51" y2="252.65"/><line class="cls-11" x1="60.25" y1="270.09" x2="161" y2="270.09"/><rect class="cls-12" x="82.12" y="122.87" width="5.48" height="5.31" rx="1.34" transform="translate(-0.17 0.11) rotate(-0.08)"/><path class="cls-6" d="M192.5,15.77H175.81a2,2,0,0,1-2-2h0a2,2,0,0,1,2-2H192.5a2,2,0,0,1,2,2h0A2,2,0,0,1,192.5,15.77Z"/><circle class="cls-13" cx="55.85" cy="76.92" r="14.1"/><path class="cls-12" d="M60.64,73.29a2.92,2.92,0,0,0-4.14,0l-.74.76L55,73.34a2.92,2.92,0,1,0-4.1,4.17l2.84,2.8,0,0a2.78,2.78,0,0,0,1.6.8,2.92,2.92,0,0,0,2.54-.84l2.8-2.86A2.92,2.92,0,0,0,60.64,73.29Z"/><path class="cls-14" d="M265.25,17H293a3.35,3.35,0,0,1,3.35,3.35V44.31A3.35,3.35,0,0,1,293,47.66h-26.8a4.29,4.29,0,0,1-4.29-4.29v-23A3.35,3.35,0,0,1,265.25,17Z"/><path class="cls-15" d="M276.28,39c2.92,0,5.88.09,8.56-.1.85-.06,1.59-1.41.56-1.83a1.94,1.94,0,0,0,1.06-.93.91.91,0,0,0-.52-1.21c1,.25,1.42-1.35.63-1.87a2.38,2.38,0,0,0,.85-1.37,1.37,1.37,0,0,0-.61-1.42,2.24,2.24,0,0,0-1.06-.18l-3.64,0a8.44,8.44,0,0,0-.54-5.64c-.29-.51-1.08-1.11-1.7-.72s-.42,1.26-.39,1.83a6.41,6.41,0,0,1-3.31,5.86S276.31,36.38,276.28,39Z"/><rect class="cls-15" x="270.8" y="31.34" width="4.42" height="7.6"/><path d="M329.16,253.05a1.4,1.4,0,0,1-1.3-.91L290.24,148.83,252.61,252.14a1.38,1.38,0,1,1-2.6-.94l38.93-106.89a1.38,1.38,0,0,1,2.6,0L330.46,251.2a1.38,1.38,0,0,1-.83,1.77A1.26,1.26,0,0,1,329.16,253.05Z"/><path class="cls-16" d="M294.72,158.49H274.24a1.38,1.38,0,1,1,0-2.76h20.48a1.38,1.38,0,1,1,0,2.76Z"/><path class="cls-16" d="M300,173.56H280.48a1.38,1.38,0,1,1,0-2.76H300a1.38,1.38,0,0,1,0,2.76Z"/><path class="cls-16" d="M278.32,173.56h-18.7a1.38,1.38,0,0,1,0-2.76h18.7a1.38,1.38,0,0,1,0,2.76Z"/><path class="cls-16" d="M305.27,188.64H285.75a1.39,1.39,0,0,1,0-2.77h19.52a1.39,1.39,0,0,1,0,2.77Z"/><path class="cls-16" d="M274.24,188.64H254.72a1.39,1.39,0,0,1,0-2.77h19.52a1.39,1.39,0,0,1,0,2.77Z"/><path class="cls-16" d="M310.54,203.71H291a1.39,1.39,0,0,1,0-2.77h19.52a1.39,1.39,0,0,1,0,2.77Z"/><path class="cls-16" d="M268.5,203.71H249a1.39,1.39,0,0,1,0-2.77H268.5a1.39,1.39,0,1,1,0,2.77Z"/><path class="cls-16" d="M315.81,218.78H296.29a1.38,1.38,0,0,1,0-2.76h19.52a1.38,1.38,0,1,1,0,2.76Z"/><path class="cls-16" d="M263.21,218.78H243.69a1.38,1.38,0,1,1,0-2.76h19.52a1.38,1.38,0,0,1,0,2.76Z"/><path d="M321.09,233.85H301.57a1.38,1.38,0,1,1,0-2.76h19.52a1.38,1.38,0,1,1,0,2.76Z"/><path class="cls-16" d="M257.78,233.85H238.26a1.38,1.38,0,0,1,0-2.76h19.52a1.38,1.38,0,0,1,0,2.76Z"/><path class="cls-16" d="M290.14,146.17H269.65a1.39,1.39,0,0,1,0-2.77h20.49a1.39,1.39,0,0,1,0,2.77Z"/><polygon class="cls-17" points="296.29 211.04 296.92 199.96 302.86 200.74 301.69 212.38 296 211.37 296.29 211.04"/><path d="M302.52,209.55s-4,2.06-6.23-1l-10.79,5.8,18.49-.11Z"/><rect class="cls-3" x="285.51" y="214.29" width="18.49" height="1.67" transform="translate(-1.36 1.87) rotate(-0.36)"/><path class="cls-18" d="M302.7,136.85s-5.34,3.15-6,20.76S295,204.78,295,204.78h9l4.62-57.37-1.21-10.56Z"/><polygon class="cls-17" points="311.82 211.04 311.23 199.96 317.18 200.74 317.22 212.38 311.54 211.37 311.82 211.04"/><path d="M318.05,209.55s-4,2.06-6.22-1l-10.8,5.8,18.49-.11Z"/><rect class="cls-3" x="301.04" y="214.29" width="18.49" height="1.67" transform="translate(-1.36 1.97) rotate(-0.36)"/><path class="cls-18" d="M314.89,139.13s5.4,6.25,4.6,17.19l-.26,48.58L309,204.64l-3.24-66.13Z"/><polyline class="cls-19" points="307.06 167.23 306.49 153.15 302.62 147.78"/><path class="cls-17" d="M269.24,117.07,280.74,128a3.14,3.14,0,0,0,4.92-.78l1.11-2L271.22,113.9Z"/><path class="cls-17" d="M271.48,115.54a3.51,3.51,0,1,1-2.26-4.43A3.52,3.52,0,0,1,271.48,115.54Z"/><path class="cls-17" d="M269,111.06l-3.23-2a.6.6,0,0,0-.83.12h0a.5.5,0,0,0,.07.7l3.07,2.73Z"/><path class="cls-17" d="M282.51,123l14.81-5.47-.7,7s-8,3.47-13,4.26S282.51,123,282.51,123Z"/><path class="cls-20" d="M301.19,117.27s-1.36-2.11-4.86-.64-9.92,3.63-9.92,3.63L292,129.8l10.54-4Z"/><path class="cls-20" d="M315.3,115.16l-7.82-.75-9.8,1.8s-.65,14.1,1,21.35a2.61,2.61,0,0,0,2.74,2.05l14,.2a5.5,5.5,0,0,0,2-4.29l-1-19.22A1.2,1.2,0,0,0,315.3,115.16Z"/><line class="cls-21" x1="297.2" y1="127.4" x2="296.72" y2="122.01"/><path class="cls-22" d="M339.22,148.73,293.64,144a1.85,1.85,0,0,1-1.66-2l.55-5.49a1.85,1.85,0,0,1,2-1.66l45.57,4.75a1.86,1.86,0,0,1,1.67,2l-.55,5.49A1.85,1.85,0,0,1,339.22,148.73Z"/><path class="cls-17" d="M326.54,139.37a33.08,33.08,0,0,1,1.79-3.39l-5.12-10.58c-.71-2.11-5.17-9.44-7-8.16-1.34.93-.47,9.15.24,10.63l5.44,10.37Z"/><path class="cls-20" d="M314.54,115.07s4.5.33,6.24,3.07c2.22,3.48,6,9.1,6,9.1l-11.5,4.31Z"/><line class="cls-21" x1="316.89" y1="130.96" x2="312.59" y2="123.57"/><path class="cls-17" d="M323.29,134l-12.55,9.07,2,2.93,13.6-5.89a3.42,3.42,0,0,0,1.22-5.38h0A3.42,3.42,0,0,0,323.29,134Z"/><path class="cls-17" d="M313.09,145.58s-1.7,4.06-4.92,3.66c-3.72-.47-4-3.42-2.34-4l2.51.18a2.78,2.78,0,0,1,1.61-2.32,3.79,3.79,0,0,1,1.34-.3Z"/><path class="cls-17" d="M310.52,142.9l-3.47.63a.49.49,0,0,0-.39.48h0a.5.5,0,0,0,.45.5l3.35.28Z"/><path class="cls-23" d="M296.22,104.25a15.61,15.61,0,0,0,2.3-2.9l1.05-2.68,3.32.91-1.61,3.3-.91.63,6.7,7.8s-4.85,4.69-9.53,1.73C293.6,110.55,294.24,105.92,296.22,104.25Z"/><path class="cls-23" d="M314.54,100.44a6.15,6.15,0,0,0,2.43,3.81c2,1.36,2.62,6.3-1.32,8.79-4.68,3-9.53-1.73-9.53-1.73Z"/><path class="cls-23" d="M301.33,96S310.74,92,314,98.2c1.88,3.67-.37,10.09-5,11.93-4.4,1.74-3.15-12.62-3.15-12.62Z"/><path class="cls-24" d="M302.52,104.85a2.16,2.16,0,1,1-2.33-2A2.15,2.15,0,0,1,302.52,104.85Z"/><path class="cls-17" d="M303.19,110.87l.37,4.68a2.33,2.33,0,0,0,2.82,2.31h0a2.62,2.62,0,0,0,2.67-2.32l-.93-7.34Z"/><polygon class="cls-24" points="303.45 114.25 308.85 109.33 303.14 110.39 303.45 114.25"/><path class="cls-17" d="M304.63,111.61h0c-2.77,0-5.09-2.1-5.2-4.36l-.24-5.33a5.26,5.26,0,0,1,4.8-5.51h0c2.9-.24,5.94,1.86,6.19,4.76l.15,4.29A6,6,0,0,1,304.63,111.61Z"/><path class="cls-23" d="M309.48,105a4.11,4.11,0,0,0-1.83-2.87c-1.61-.94-6-2.32-5.58-5.74,0,0,6.84-2,9.37,2.47S309.48,105,309.48,105Z"/><path class="cls-17" d="M313,105a2.15,2.15,0,1,1-2.33-2A2.15,2.15,0,0,1,313,105Z"/><path class="cls-23" d="M303.88,96.36s-.5,2.81-4.85,4.69c0,0-1.08-2,1.81-4.74a1.47,1.47,0,0,1,1-.39h3.36Z"/><path class="cls-17" d="M311.33,114.76,307,114.3l-5.77,1.26s0,4.15,4.69,3.87A5.82,5.82,0,0,0,311.33,114.76Z"/><path d="M308.39,253.05a1.38,1.38,0,0,1-1.3-.91L269.46,148.83,231.84,252.14a1.38,1.38,0,1,1-2.6-.94l38.92-106.89a1.38,1.38,0,0,1,2.6,0L309.69,251.2a1.38,1.38,0,0,1-.83,1.77A1.26,1.26,0,0,1,308.39,253.05Z"/><polygon class="cls-25" points="57.49 234.26 56.72 245.65 51.47 245.43 51.65 233.89 57.49 234.26"/><path d="M57.11,244.39l9.57,4.36a1.52,1.52,0,0,1,.79,1.7H50.6l.62-6.13Z"/><rect class="cls-4" x="50.3" y="250.45" width="17.39" height="1.82" transform="translate(117.99 502.72) rotate(180)"/><polygon class="cls-25" points="40.4 234.26 39.63 245.65 34.38 245.43 34.56 233.89 40.4 234.26"/><path d="M40,244.39l9.56,4.36a1.52,1.52,0,0,1,.8,1.7H33.5l.63-6.13Z"/><rect class="cls-4" x="33.21" y="250.45" width="17.39" height="1.82" transform="translate(83.8 502.72) rotate(180)"/><polygon class="cls-18" points="54.46 180.76 34.32 182.29 31.65 238.87 42.68 238.87 46.26 196.2 51.04 214.43 49.41 239.56 58.81 239.59 62.05 211.8 54.46 180.76"/><line class="cls-19" x1="50.76" y1="193.74" x2="46.26" y2="196.2"/><polygon class="cls-26" points="54.2 163.5 54.07 169.05 57.22 169.09 56.99 163.11 54.2 163.5"/><path class="cls-14" d="M54.39,154.07s5.06,3,4.33,12.51L54,165.53Z"/><path class="cls-14" d="M44.24,150.94a43.86,43.86,0,0,0-10.82,1.75l.22,32.25,21.41-1.65-.22-28.2a1.38,1.38,0,0,0-.72-1.19l-5.92-2.53S45.27,150.94,44.24,150.94Z"/><line class="cls-27" x1="54.9" y1="165.72" x2="54.9" y2="159.5"/><path class="cls-25" d="M36,163.56l-1.38,15.95s-1.52,3.21-4.21-.13S30,163,30,163Z"/><path class="cls-14" d="M36.67,166.91s1.74-13.55-2-14.24-7.51,8.41-7.51,16Z"/><polyline class="cls-27" points="35.65 167 37.08 166.58 37.35 160.18"/><path class="cls-25" d="M45.1,164.58a4.37,4.37,0,0,1,3.59-3.09c2.82-.27,3.65,1.94,3.12,3.39s-2.36,3.82-5.14,2.61S45.1,164.58,45.1,164.58Z"/><path class="cls-25" d="M49.63,161.49a17.64,17.64,0,0,1,4.82,1.32.56.56,0,0,1,.29.57h0a.54.54,0,0,1-.64.46l-3.82-.71Z"/><polygon class="cls-25" points="33.99 180.32 46.67 167.49 45.1 164.58 32.76 172.42 33.99 180.32"/><line class="cls-28" x1="35.33" y1="170.78" x2="32.76" y2="172.42"/><path class="cls-29" d="M62.43,167.8l-5.34,15.84a1.18,1.18,0,0,1-1.29.81l-13-1.7a1.2,1.2,0,0,1-1-1.59l5.49-15.82a1.19,1.19,0,0,1,1.29-.79l12.81,1.68A1.2,1.2,0,0,1,62.43,167.8Z"/><polygon class="cls-29" points="62.2 166.63 62.88 167.51 42.67 183.11 41.95 182.16 62.2 166.63"/><path class="cls-30" d="M63,168.59,57.7,184.43a1.2,1.2,0,0,1-1.29.81l-13-1.71a1.19,1.19,0,0,1-1-1.58L48,166.13a1.21,1.21,0,0,1,1.29-.8L62.05,167A1.21,1.21,0,0,1,63,168.59Z"/><path class="cls-25" d="M62.43,173.19l-1.21,3.28a.92.92,0,0,1-1,.59h0a2,2,0,0,1-1.67-2.61l.35-1.1a2,2,0,0,1,2-1.42l.68,0A.91.91,0,0,1,62.43,173.19Z"/><path class="cls-25" d="M48.91,146.15l-.64,5.2a2.56,2.56,0,0,1-3.17,2.43h0c-1.48-.2-3-1.13-2.76-2.73l.77-8.16Z"/><path class="cls-31" d="M48.32,150.94s-5.86-2.12-5.36-7.37c.14-1.56,6,2.35,6,2.35Z"/><path class="cls-25" d="M49.57,152l-2.52-1.18-4.46.13-2.61.37s-1,3.91,5.63,4.13C50.89,155.58,49.57,152,49.57,152Z"/><path class="cls-32" d="M52.4,139.4s5.08-3.79,2.76-7.29-6.54-.47-6.54-.47Z"/><path class="cls-32" d="M48.32,130.71s-14.32-2-8,9.06l1.63-4.5Z"/><path class="cls-32" d="M52.67,133.74s2.4,2-.61,6.4l-.8-5.62Z"/><path class="cls-33" d="M50,141.44a2.13,2.13,0,1,0,2.37-1.93A2.17,2.17,0,0,0,50,141.44Z"/><path class="cls-25" d="M46.7,148h0a5.53,5.53,0,0,0,5.8-4.69l.41-5.28a5.81,5.81,0,0,0-5-6.33h0c-3.13-.38-6.51,1.87-6.88,5.1l-.27,4.12A6.59,6.59,0,0,0,46.7,148Z"/><path class="cls-32" d="M52.93,136.75s.2-1.38-2.52-1.72-6.23-.11-8.17,2.32l0,3.81-2.43-2.4,1.28-5.68,7.27-2.37,4.35,3Z"/><path class="cls-25" d="M38,140.66a2.11,2.11,0,1,0,2.34-1.91A2.13,2.13,0,0,0,38,140.66Z"/><path class="cls-32" d="M50.47,131.81s.65-1.66-1.63-2.58c-2-.79-4-.45-8.37,2.51Z"/><path class="cls-32" d="M52,145.61a.86.86,0,0,0-.52-.78,8.91,8.91,0,0,0-2.21-.61,12,12,0,0,0-4.24.48,1,1,0,0,1-1.11-.5,12,12,0,0,1-1-8.23l-1.52,1.1.2,2.33s1.18,2.52-.67,3.64c0,0-.09,5.21,4.75,6.15a7.14,7.14,0,0,0,4.27-.57A3.49,3.49,0,0,0,52,145.61Z"/><path class="cls-32" d="M42.37,138.48a2.71,2.71,0,0,0,2-3.84c-1.23-3.1-2.72.84-2.72.84Z"/><polygon class="cls-25" points="84.22 254.74 89.32 246.63 95.32 249.67 89.17 259.11 84.35 256.94 84.22 254.74"/><path d="M84.12,254.11s2.93,4.73,6.85,3.44l4.49,11.2-15.8-11.42Z"/><rect class="cls-4" x="86.22" y="253.98" width="1.7" height="19.49" transform="translate(-177.67 179.77) rotate(-54.13)"/><polygon class="cls-18" points="100.86 206.14 94.71 232.22 84.36 249.59 94.19 255.29 106.62 233.17 110.73 216.5 100.86 206.14"/><polygon class="cls-19" points="94.22 255.83 83.61 249.54 86.66 244.51 97.25 251.18 94.22 255.83"/><polygon class="cls-25" points="131.62 262.72 127.77 253.95 133.65 250.69 138.01 261.08 133.5 263.85 131.62 262.72"/><path d="M131,262.45s5.56.23,6.69-3.73l11.79,2.55-18.24,6.51Z"/><rect class="cls-4" x="130.91" y="264.56" width="19.5" height="1.7" transform="translate(-82.35 64.17) rotate(-20.02)"/><path class="cls-18" d="M112.76,199v5.92L128.33,229l9.74,26.34-9.53,3.81L118.71,235,100.13,211s-6.25-8.09,1.24-15.2Z"/><line class="cls-19" x1="109.2" y1="222.72" x2="99.81" y2="210.61"/><polygon class="cls-19" points="138.8 255.04 127.72 259.6 125.6 254.11 136.97 249.8 138.8 255.04"/><path class="cls-31" d="M113.86,177.63l7.23,5.27,8.72-11.17,2.7,1.48s-3.24,11-7.55,16.56a2.76,2.76,0,0,1-3.2.86A44,44,0,0,1,109.67,183Z"/><path class="cls-34" d="M116,179.21l-5.47,9.12-5.37-4.13a5.29,5.29,0,0,1-1.19-7.09h0a5.26,5.26,0,0,1,7.68-1.41Z"/><path class="cls-35" d="M111.68,175.7l-8.55-2.95s-7.34,6.56-1.76,23.08L112.76,199a73.62,73.62,0,0,0,1.08-9.93C118.18,183,111.68,175.7,111.68,175.7Z"/><rect class="cls-13" x="127.38" y="154.23" width="31.66" height="31.25" rx="4.95"/><path class="cls-12" d="M149.24,168.67l-1-.17a5.08,5.08,0,0,0-.52-1.25l.59-.83a.76.76,0,0,0-.09-1l-.6-.6a.76.76,0,0,0-1-.07l-.83.58a5.05,5.05,0,0,0-1.25-.51l-.17-1a.75.75,0,0,0-.74-.63h-.86a.76.76,0,0,0-.76.63l-.18,1a5.18,5.18,0,0,0-1.24.52l-.83-.56a.76.76,0,0,0-1,.09l-.6.59a.77.77,0,0,0-.09,1l.58.83a5.15,5.15,0,0,0-.51,1.24l-1,.18a.76.76,0,0,0-.64.76v.84a.76.76,0,0,0,.64.76l1,.18a5.15,5.15,0,0,0,.51,1.24l-.58.83a.77.77,0,0,0,.09,1l.6.6a.76.76,0,0,0,1,.08l.83-.58a5.5,5.5,0,0,0,1.25.52l.17,1a.76.76,0,0,0,.76.64h.86a.78.78,0,0,0,.76-.64l.17-1a5.08,5.08,0,0,0,1.25-.52l.81.57a.76.76,0,0,0,1-.09l.6-.6a.76.76,0,0,0,.09-1l-.59-.84a5.18,5.18,0,0,0,.52-1.24l1-.18a.76.76,0,0,0,.64-.75v-.85A.78.78,0,0,0,149.24,168.67Zm-6,3.47a2.29,2.29,0,1,1,2.29-2.29h0A2.29,2.29,0,0,1,143.21,172.14Z"/><path class="cls-25" d="M111.93,180.75l6.28,7.6L128.85,179l2.24,2.1s-5.86,9.86-11.42,14.18a2.76,2.76,0,0,1-3.31,0,44.11,44.11,0,0,1-9.82-10.4Z"/><path class="cls-25" d="M136.63,175.82a.48.48,0,0,0-.59-.06l-1.57,1-.12-.09L136,175a.5.5,0,0,0,0-.7.57.57,0,0,0-.78,0l-1.83,1.64-.17-.13,1.73-2.39a.44.44,0,0,0-.07-.6.52.52,0,0,0-.72.05l-2,2.15h0l-.19-.15,1.09-2a.45.45,0,0,0-.15-.6.53.53,0,0,0-.72.16l-1.12,1.76s-.4.92-.87,1.91l-.32-1.74a.44.44,0,0,0-.35-.35.47.47,0,0,0-.56.41c-.08,1.1,0,4.36-.16,4.58l2.24,2.1,4.34-3.59,1.17-1.1A.41.41,0,0,0,136.63,175.82Z"/><path class="cls-36" d="M113.75,182.72l-7.67,7.57L101.91,185a5.27,5.27,0,0,1,.61-7.15h0a5.27,5.27,0,0,1,7.78.75Z"/><polyline class="cls-37" points="108.75 187.82 106.08 190.29 101.91 184.95"/><line class="cls-37" x1="113.75" y1="182.72" x2="109.75" y2="177.92"/><path class="cls-32" d="M110.64,164.83l4.22-1.08c2.89,1.69,3.34,6.41,3.34,6.41h-7.35Z"/><polygon class="cls-25" points="112.07 167.98 109.79 174.75 103.6 172.23 107.03 162.06 112.07 167.98"/><path class="cls-31" d="M110.73,172c0-.12-1.16-4.22-1.16-4.22l2.57,1.18Z"/><path class="cls-25" d="M113.91,153.92s3.21.53,3.39,4.58c0,0,.09,2.93.19,7.15a3.49,3.49,0,0,1-4.14,3.55,10.43,10.43,0,0,1-4.14-1.86l-1.86-1.75c-4.34-4.85-.36-12.62,6.09-11.75Z"/><path class="cls-25" d="M117,162.7l1.46,1.39a.33.33,0,0,1-.19.56l-1.46.15Z"/><path class="cls-32" d="M109.63,161.16s-1.91-9.82,6.57-5.82c0,0-3.28-5.37-10.74-2.12a6.49,6.49,0,0,0-3.48,4.26c-.47,2.72,1,5,3.46,9.3l2.84-3.3A11.92,11.92,0,0,1,109.63,161.16Z"/><path class="cls-32" d="M106.9,158.28l1.7,4.05c10.86-3.39,5.91-8.47,5.91-8.47S105.73,151.25,106.9,158.28Z"/><polygon class="cls-32" points="112.36 160.22 110.83 162.49 108.92 159.83 112.36 160.22"/><path class="cls-32" d="M112.94,154.39s3.72.62,4.26,3.21c0,0,2.93-3-3.13-4.28C110.47,152.57,112.94,154.39,112.94,154.39Z"/><path class="cls-32" d="M109,163.48s-.7,4.93-.23,6.68l-9.1-.49a17.52,17.52,0,0,0,1.82-5.67c.11-1.95-.88-6.4,2.13-9.42l1.5,5.84Z"/><path class="cls-25" d="M106.61,162.5a2.15,2.15,0,1,0,2.31-2A2.14,2.14,0,0,0,106.61,162.5Z"/><path class="cls-25" d="M103.13,172.75a12.57,12.57,0,0,0,8.55,2.95L108,171.31l-3.62-.76Z"/></g></g></svg>